<?xml version="1.0" encoding="UTF-8"?>
<!DOCTYPE svg PUBLIC "-//W3C//DTD SVG 1.1//EN" "http://www.w3.org/Graphics/SVG/1.1/DTD/svg11.dtd">
<!-- Creator: CorelDRAW 2017 -->
<svg xmlns="http://www.w3.org/2000/svg" xml:space="preserve" width="100%" height="100%" version="1.1" style="shape-rendering:geometricPrecision; text-rendering:geometricPrecision; image-rendering:optimizeQuality; fill-rule:evenodd; clip-rule:evenodd"
viewBox="0 0 19740 10920"
 xmlns:xlink="http://www.w3.org/1999/xlink">
 <defs>
  <style type="text/css">
   <![CDATA[
    .fil0 {fill:black}
   ]]>
  </style>
 </defs>
 <g id="Camada_x0020_1">
  <metadata id="CorelCorpID_0Corel-Layer"/>
  <path class="fil0" d="M3159 6796l402 268 2100 -3150 -402 -268 -2100 3150zm630 -3150l-2100 3150 402 268 2100 -3150 -402 -268zm13011 -2596l0 -210 -13860 0 0 210c0,784 -245,2100 -1890,2100l-210 0 0 4620 210 0c1645,0 1890,1316 1890,2100l0 210 13860 0 0 -210c0,-784 245,-2100 1890,-2100l210 0 0 -4200 -210 0c-1299,0 -1890,-1306 -1890,-2520zm1680 6307c-1257,84 -2025,927 -2095,2303l-13031 0c-70,-1376 -838,-2219 -2095,-2303l0 -3793c1257,-84 2025,-927 2095,-2303l13031 0c65,1288 728,2599 2095,2721l0 3376 0 0zm-14070 -4627c232,0 420,-188 420,-420 0,-232 -188,-420 -420,-420 -232,0 -420,188 -420,420 0,232 188,420 420,420zm10920 0c232,0 420,-188 420,-420 0,-232 -188,-420 -420,-420 -232,0 -420,188 -420,420 0,232 188,420 420,420zm-10920 5460c-232,0 -420,188 -420,420 0,232 188,420 420,420 232,0 420,-188 420,-420 0,-232 -188,-420 -420,-420zm10920 0c-232,0 -420,188 -420,420 0,232 188,420 420,420 232,0 420,-188 420,-420 0,-232 -188,-420 -420,-420zm630 -4442c-944,0 -1712,768 -1712,1712 0,944 768,1712 1712,1712 944,0 1712,-768 1712,-1712 0,-944 -768,-1712 -1712,-1712zm0 2940c-677,0 -1229,-551 -1229,-1229 0,-677 551,-1229 1229,-1229 677,0 1229,551 1229,1229 0,677 -551,1229 -1229,1229zm-4966 -4025c-347,-139 -727,-217 -1124,-217 -1537,0 -2806,1151 -2990,2638 -15,123 -23,248 -23,374 0,1664 1349,3013 3013,3013 1664,0 3013,-1349 3013,-3013 0,-1267 -782,-2351 -1889,-2796zm-1024 3325l0 514c0,93 -75,168 -168,168 -93,0 -168,-75 -168,-168l0 -514c0,-191 -155,-346 -346,-346l-871 0 0 860c0,93 -75,168 -168,168 -93,0 -168,-75 -168,-168l0 -2056c0,-93 75,-168 168,-168l1039 0c376,0 682,306 682,682 0,205 -92,389 -235,514 144,125 235,309 235,514zm1257 681l-55 0 0 263c0,93 -75,168 -168,168 -93,0 -168,-75 -168,-168l0 -263 -451 0c-93,0 -168,-75 -168,-168 0,-93 75,-168 168,-168l841 0c191,0 346,-155 346,-346 0,-191 -155,-346 -346,-346l-465 0c-367,-10 -662,-312 -662,-682 0,-376 306,-681 681,-681l55 0 0 -263c0,-93 75,-168 168,-168 93,0 168,75 168,168l0 263 418 0c93,0 168,75 168,168 0,93 -75,168 -168,168l-809 0c-190,0 -346,155 -346,345 0,191 155,346 346,346l445 0c376,0 682,306 682,682 0,376 -306,681 -682,681zm7672 -6670l-18060 0c-463,0 -840,377 -840,840l0 9240c0,463 377,840 840,840l18060 0c463,0 840,-377 840,-840l0 -9240c0,-463 -377,-840 -840,-840zm420 10080c0,232 -188,420 -420,420l-18060 0c-232,0 -420,-188 -420,-420l0 -9240c0,-232 188,-420 420,-420l18060 0c232,0 420,188 420,420l0 9240zm-10031 -5465l-871 0 0 692 871 0c191,0 346,-155 346,-346 0,-191 -155,-346 -346,-346z"/>
 </g>
</svg>
