<?xml version="1.0" encoding="UTF-8"?>
<!DOCTYPE svg PUBLIC "-//W3C//DTD SVG 1.1//EN" "http://www.w3.org/Graphics/SVG/1.1/DTD/svg11.dtd">
<!-- Creator: CorelDRAW 2017 -->
<svg xmlns="http://www.w3.org/2000/svg" xml:space="preserve" width="100%" height="100%" version="1.1" style="shape-rendering:geometricPrecision; text-rendering:geometricPrecision; image-rendering:optimizeQuality; fill-rule:evenodd; clip-rule:evenodd"
viewBox="0 0 9092 4583"
 xmlns:xlink="http://www.w3.org/1999/xlink">
 <defs>
  <style type="text/css">
   <![CDATA[
    .fil0 {fill:#FEFEFE}
    .fil2 {fill:#FAEE35}
    .fil3 {fill:#E04238}
    .fil1 {fill:#23A0D7}
   ]]>
  </style>
 </defs>
 <g id="Camada_x0020_1">
  <metadata id="CorelCorpID_0Corel-Layer"/>
  <path class="fil0" d="M2702 1975l-1888 814c-3,-33 -5,-65 -5,-99 0,-597 484,-1081 1081,-1081 323,0 613,142 811,367l0 0zm-811 -1175c891,0 1638,617 1838,1446l-762 333 0 -2 -779 342 -1870 818c-200,-300 -317,-660 -317,-1048 0,-1044 846,-1890 1890,-1890l0 0z"/>
  <path class="fil0" d="M3211 4042c-677,642 -1572,705 -2359,228l445 -676c448,268 897,224 1349,-131l565 579 0 0z"/>
  <path class="fil0" d="M3981 3575l-5 -3575 677 0 0 3478c0,33 4,63 48,80l589 229 -265 690 -690 -292c-262,-111 -353,-271 -354,-611l0 0z"/>
  <path class="fil1" d="M6531 3514c-254,-197 -417,-505 -417,-852 0,-308 129,-586 336,-782l-437 -709c-440,348 -722,887 -722,1491 0,652 328,1226 827,1569l413 -717z"/>
  <path class="fil2" d="M6827 1647c114,-41 237,-63 365,-63 462,0 856,290 1010,699l838 -70c-202,-833 -953,-1452 -1848,-1452 -253,0 -494,50 -715,139l350 747z"/>
  <path class="fil3" d="M8270 2715c-27,572 -499,1027 -1077,1027 -91,0 -179,-11 -263,-32l-329 761c186,61 385,94 592,94 1024,0 1859,-810 1900,-1824l-822 -26z"/>
 </g>
</svg>
