<?xml version="1.0" encoding="iso-8859-1"?>
<!-- Generator: Adobe Illustrator 19.0.0, SVG Export Plug-In . SVG Version: 6.00 Build 0)  -->
<svg version="1.1" id="Layer_1" xmlns="http://www.w3.org/2000/svg" xmlns:xlink="http://www.w3.org/1999/xlink" x="0px" y="0px"
	 viewBox="0 0 214.305 214.305" style="enable-background:new 0 0 214.305 214.305;" xml:space="preserve">
<g>
	<g>
		<g>
			<path d="M214.278,155.58c-0.014-0.387-0.092-0.767-0.229-1.137c-0.03-0.082-0.05-0.166-0.086-0.245
				c-0.02-0.044-0.026-0.093-0.048-0.137l-36.949-73.898c-0.628-1.252-1.905-2.042-3.305-2.042h-40.824
				c-0.841-8.862-5.378-14.134-10.581-18.864c-5.979-5.434-9.584-8.714,4.337-27.297c1.227-1.635,0.895-3.948-0.74-5.171
				c-1.638-1.227-3.951-0.888-5.171,0.74c-16.667,22.242-11.922,29.444-3.399,37.194c3.505,3.186,7.226,6.628,8.107,13.398h-14.43
				c-1.272-4.748-3.199-8.868-5.039-12.766c-4.196-8.898-7.513-15.924-2.071-28.228c0.826-1.866-0.018-4.049-1.884-4.871
				c-1.855-0.826-4.045,0.018-4.871,1.884c-6.813,15.393-2.259,25.038,2.143,34.369c1.491,3.16,2.943,6.265,4.024,9.613H96.71
				c-1.573-10.308-7.394-15.689-12.29-20.142c-7.57-6.881-12.142-11.038,5.156-34.124c1.227-1.635,0.895-3.948-0.74-5.171
				c-1.638-1.227-3.951-0.888-5.171,0.74C63.82,45.91,69.11,54.05,79.448,63.45c4.008,3.644,8.246,7.554,9.766,14.671h-48.57
				c-1.4,0-2.677,0.79-3.305,2.042L0.39,154.062c-0.022,0.044-0.028,0.092-0.048,0.137c-0.036,0.079-0.055,0.162-0.085,0.244
				c-0.137,0.37-0.215,0.75-0.229,1.137C0.025,155.627,0,155.666,0,155.714v36.949c0,2.042,1.653,3.695,3.695,3.695H210.61
				c2.042,0,3.695-1.653,3.695-3.695v-36.949C214.305,155.666,214.28,155.628,214.278,155.58z M42.928,85.511h46.847
				c-0.317,7.206-2.797,16.867-8.833,30.378c-0.834,1.866,0.004,4.049,1.866,4.882c0.491,0.22,1.003,0.321,1.505,0.321
				c1.414,0,2.764-0.815,3.378-2.187c6.441-14.42,9.041-25.131,9.378-33.395h7.768c0.473,4.716,0.012,10.119-2.063,16.8
				c-0.606,1.948,0.484,4.02,2.432,4.626c0.364,0.112,0.736,0.166,1.097,0.166c1.577,0,3.038-1.014,3.529-2.598
				c2.306-7.426,2.856-13.612,2.416-18.994h13.064c-0.726,5.479-2.821,12.505-6.95,21.747c-0.834,1.866,0.004,4.049,1.866,4.882
				c0.491,0.22,1.003,0.321,1.505,0.321c1.414,0,2.764-0.815,3.378-2.187c4.584-10.264,6.89-18.284,7.619-24.764h38.65
				l33.254,66.508H133.02h-7.39H88.678h-7.39H9.674L42.928,85.511z M125.254,159.409c-1.717,8.422-9.18,14.78-18.101,14.78
				c-8.921,0-16.384-6.358-18.101-14.78H125.254z M206.916,188.968h-0.001H7.39v-29.559h74.194
				c1.803,12.512,12.567,22.169,25.569,22.169s23.766-9.658,25.569-22.169h74.194V188.968z"/>
			
				<rect x="151.492" y="106.759" transform="matrix(0.4703 0.8825 -0.8825 0.4703 193.536 -70.1272)" width="7.388" height="38.795"/>
			
				<rect x="151.492" y="125.284" transform="matrix(-0.4472 -0.8944 0.8944 -0.4472 101.8375 337.4203)" width="7.39" height="23.913"/>
		</g>
	</g>
</g>
<g>
</g>
<g>
</g>
<g>
</g>
<g>
</g>
<g>
</g>
<g>
</g>
<g>
</g>
<g>
</g>
<g>
</g>
<g>
</g>
<g>
</g>
<g>
</g>
<g>
</g>
<g>
</g>
<g>
</g>
</svg>
