<?xml version="1.0" encoding="UTF-8"?>
<!DOCTYPE svg PUBLIC "-//W3C//DTD SVG 1.1//EN" "http://www.w3.org/Graphics/SVG/1.1/DTD/svg11.dtd">
<!-- Creator: CorelDRAW 2017 -->
<svg xmlns="http://www.w3.org/2000/svg" xml:space="preserve" width="100%" height="100%" version="1.1" style="shape-rendering:geometricPrecision; text-rendering:geometricPrecision; image-rendering:optimizeQuality; fill-rule:evenodd; clip-rule:evenodd"
viewBox="0 0 10000 13370"
 xmlns:xlink="http://www.w3.org/1999/xlink">
 <defs>
  <style type="text/css">
   <![CDATA[
    .fil0 {fill:black}
   ]]>
  </style>
 </defs>
 <g id="Camada_x0020_1">
  <metadata id="CorelCorpID_0Corel-Layer"/>
  <g id="_3060995532704">
   <path class="fil0" d="M1323 0c-732,0 -1323,598 -1323,1326l0 10718c0,734 591,1326 1323,1326l7354 0c732,0 1323,-592 1323,-1326l0 -10718c0,-728 -591,-1326 -1323,-1326l-7354 0 0 0zm0 337l7354 0c555,0 992,438 992,989l0 10718c0,551 -437,995 -992,995l-7354 0c-549,0 -992,-444 -992,-995l0 -10718c0,-551 443,-989 992,-989l0 0zm638 1486c-490,0 -886,403 -886,894 0,492 396,894 886,894 484,0 886,-403 886,-894 0,-491 -402,-894 -886,-894l0 0zm0 332c307,0 555,249 555,563 0,308 -248,557 -555,557 -313,0 -555,-249 -555,-557 0,-314 242,-563 555,-563l0 0zm1896 397c-89,6 -160,95 -154,178 6,89 95,160 183,154l4743 0c83,0 165,-77 165,-166 0,-89 -83,-172 -165,-166l-4743 0c-6,0 -12,0 -18,0 -6,0 -6,0 -12,0l0 0zm-1896 1913c-490,0 -886,403 -886,894 0,492 396,894 886,894 484,0 886,-403 886,-894 0,-492 -402,-894 -886,-894l0 0zm0 337c307,0 555,249 555,557 0,308 -248,557 -555,557 -313,0 -555,-249 -555,-557 0,-308 242,-557 555,-557l0 0zm1878 397c-89,12 -154,101 -142,189 12,89 101,154 189,142l4743 0c83,0 165,-77 165,-166 0,-89 -83,-166 -165,-166l-4743 0c-12,0 -24,0 -30,0 -6,0 -12,0 -17,0l0 0zm-1878 1912c-490,0 -886,403 -886,894 0,492 396,894 886,894 484,0 886,-402 886,-894 0,-491 -402,-894 -886,-894l0 0zm0 338c307,0 555,249 555,557 0,314 -248,563 -555,563 -313,0 -555,-249 -555,-563 0,-308 242,-557 555,-557l0 0zm1896 391c-89,6 -160,95 -154,184 6,89 95,160 183,148l4743 0c83,6 165,-77 165,-166 0,-89 -83,-166 -165,-166l-4743 0c-6,0 -12,0 -18,0 -6,0 -6,0 -12,0l0 0zm-1896 1924c-490,0 -886,403 -886,888 0,491 396,894 886,894 484,0 886,-403 886,-894 0,-486 -402,-888 -886,-888l0 0zm0 331c307,0 555,249 555,557 0,314 -248,562 -555,562 -313,0 -555,-249 -555,-562 0,-308 242,-557 555,-557l0 0zm1878 391c-89,12 -154,107 -142,189 12,89 101,160 189,148l4743 0c83,0 165,-83 165,-171 0,-89 -83,-166 -165,-166l-4743 0c-12,0 -24,0 -30,0 -6,0 -12,0 -17,0l0 0z"/>
  </g>
 </g>
</svg>
