<?xml version="1.0" encoding="UTF-8"?>
<!DOCTYPE svg PUBLIC "-//W3C//DTD SVG 1.1//EN" "http://www.w3.org/Graphics/SVG/1.1/DTD/svg11.dtd">
<!-- Creator: CorelDRAW 2017 -->
<svg xmlns="http://www.w3.org/2000/svg" xml:space="preserve" width="100%" height="100%" version="1.1" style="shape-rendering:geometricPrecision; text-rendering:geometricPrecision; image-rendering:optimizeQuality; fill-rule:evenodd; clip-rule:evenodd"
viewBox="0 0 15308 16000"
 xmlns:xlink="http://www.w3.org/1999/xlink">
 <defs>
  <style type="text/css">
   <![CDATA[
    .fil0 {fill:black}
   ]]>
  </style>
 </defs>
 <g id="Camada_x0020_1">
  <metadata id="CorelCorpID_0Corel-Layer"/>
  <path class="fil0" d="M10397 609c-125,-396 -521,-646 -918,-605 -1064,83 -3212,563 -5902,3003 -2669,2440 -3378,4567 -3566,5631 -63,396 146,813 521,980l13472 6298c125,63 250,83 396,83 209,0 438,-83 605,-229 271,-250 375,-626 250,-980l-4859 -14181zm-9948 8092c167,-1001 855,-3024 3441,-5401 2586,-2357 4651,-2836 5652,-2899 229,-21 417,125 501,334l480 1376c-6236,1689 -7925,6632 -8238,7820l-1543 -709c-229,-83 -334,-313 -292,-521zm14285 6736c-125,104 -313,188 -542,83l-11553 -5401c229,-938 1773,-5923 7987,-7612l4254 12408c63,229 -42,417 -146,521z"/>
  <path class="fil0" d="M11252 7199c-438,-480 -1168,-501 -1627,-83 -229,209 -355,501 -375,792 -21,292 83,605 292,834 229,250 542,375 855,375 271,0 563,-104 772,-292 229,-209 355,-501 375,-792 21,-292 -83,-605 -292,-834zm-355 1335c-292,271 -772,250 -1043,-42 -125,-146 -209,-334 -188,-521 21,-188 104,-375 229,-501 146,-125 313,-188 501,-188 209,0 396,83 542,229 125,146 209,334 188,521 -21,188 -83,355 -229,501z"/>
  <path class="fil0" d="M9416 6177c271,0 563,-104 772,-292 229,-209 355,-501 375,-792 21,-292 -83,-605 -292,-834 -438,-480 -1168,-501 -1627,-83 -229,209 -355,501 -375,792 -21,292 83,605 292,834 229,250 542,375 855,375zm-501 -1710c146,-125 313,-188 501,-188 209,0 396,83 542,229 125,146 209,334 188,521 -21,188 -104,375 -229,501 -292,271 -772,250 -1043,-42 -125,-146 -209,-334 -188,-521 21,-188 83,-355 229,-501z"/>
  <path class="fil0" d="M12524 11308c313,-292 334,-792 42,-1105 0,0 0,0 0,0 -125,-146 -313,-229 -521,-250 -209,-21 -417,63 -563,209 -146,146 -250,334 -250,542 0,209 63,417 209,563 146,167 375,250 584,250 167,0 355,-63 501,-209zm-792 -334c-63,-63 -104,-167 -104,-250 0,-104 42,-188 125,-250 63,-63 146,-104 250,-104 0,0 21,0 21,0 104,0 188,42 250,125 125,146 125,375 -21,521 -146,125 -375,104 -521,-42z"/>
  <path class="fil0" d="M7143 6407c-292,-313 -792,-334 -1105,-42 -313,292 -334,792 -42,1105 146,167 375,250 584,250 188,0 375,-63 521,-209 313,-292 334,-792 42,-1105zm-313 792c-146,125 -375,125 -521,-21 -125,-146 -125,-375 21,-521 63,-63 167,-104 250,-104 104,0 188,42 271,125 0,0 0,0 0,0 125,146 125,396 -21,521z"/>
  <path class="fil0" d="M8353 8617c-355,-375 -938,-417 -1314,-63 -375,355 -417,938 -63,1314 188,209 438,313 688,313 229,0 459,-83 626,-250 375,-334 417,-938 63,-1314zm-334 1022c-209,188 -542,188 -730,-42 -188,-209 -188,-542 42,-730 104,-83 229,-125 355,-125 146,0 271,63 375,167 0,0 0,0 0,0 167,209 167,521 -42,730z"/>
  <path class="fil0" d="M12691 12330c-229,0 -438,63 -605,229 -167,146 -271,355 -271,584 0,229 63,438 229,605 167,188 396,271 626,271 209,0 417,-83 584,-229 355,-313 375,-855 63,-1210 -188,-125 -396,-229 -626,-250zm250 1189c-83,83 -188,125 -313,104 -125,0 -229,-63 -292,-146 -83,-83 -125,-188 -104,-313 0,-125 63,-229 146,-313 83,-83 188,-104 292,-104 125,0 229,42 313,146 83,83 125,188 104,313 -21,125 -63,229 -146,313z"/>
  <path class="fil0" d="M9479 10098c-313,-21 -605,104 -855,313 -480,438 -521,1189 -83,1668 229,250 542,375 876,375 292,0 563,-104 792,-313 229,-209 375,-501 375,-813 21,-313 -104,-605 -313,-855 -188,-229 -459,-355 -792,-375zm459 1731c-313,292 -792,250 -1064,-42 -292,-313 -250,-792 42,-1064 146,-125 313,-209 521,-209 21,0 21,0 42,0 209,0 396,104 521,250 0,0 0,0 0,0 146,146 209,334 188,542 0,209 -83,396 -250,521z"/>
  <path class="fil0" d="M4954 8075c-313,-21 -605,104 -855,313 -250,209 -375,501 -375,813 -21,313 104,605 313,855 209,229 501,375 813,375 21,0 42,0 63,0 292,0 584,-104 792,-313 229,-209 375,-501 375,-813 0,-313 -83,-605 -292,-834 -229,-250 -521,-375 -834,-396zm459 1731c-146,146 -334,209 -542,188 -209,0 -396,-104 -521,-250 -146,-146 -209,-334 -188,-542 0,-209 104,-396 250,-521 146,-125 313,-209 521,-209 21,0 21,0 42,0 209,0 396,104 521,250 0,0 0,0 0,0 146,146 209,334 188,542 -21,229 -104,417 -271,542z"/>
 </g>
</svg>
