<?xml version="1.0" encoding="UTF-8"?>
<!DOCTYPE svg PUBLIC "-//W3C//DTD SVG 1.1//EN" "http://www.w3.org/Graphics/SVG/1.1/DTD/svg11.dtd">
<!-- Creator: CorelDRAW 2017 -->
<svg xmlns="http://www.w3.org/2000/svg" xml:space="preserve" width="100%" height="100%" version="1.1" style="shape-rendering:geometricPrecision; text-rendering:geometricPrecision; image-rendering:optimizeQuality; fill-rule:evenodd; clip-rule:evenodd"
viewBox="0 0 8923 6934"
 xmlns:xlink="http://www.w3.org/1999/xlink">
 <defs>
  <style type="text/css">
   <![CDATA[
    .fil0 {fill:#373435;fill-rule:nonzero}
    .fil3 {fill:#F9A233;fill-rule:nonzero}
    .fil2 {fill:#F27035;fill-rule:nonzero}
    .fil1 {fill:#ED3438;fill-rule:nonzero}
   ]]>
  </style>
 </defs>
 <g id="Camada_x0020_1">
  <metadata id="CorelCorpID_0Corel-Layer"/>
  <g id="_2164128354416">
   <g>
    <path class="fil0" d="M1529 6224c-26,-26 -56,-46 -91,-60 -35,-14 -74,-21 -115,-21 -22,0 -45,2 -69,6 -24,4 -47,11 -70,20 -23,10 -45,23 -65,40 -21,17 -39,38 -54,64 -25,-41 -58,-72 -100,-96 -42,-23 -90,-35 -144,-35 -18,0 -37,2 -56,5 -19,3 -39,9 -58,17 -19,8 -37,19 -55,33 -17,14 -33,32 -48,53l0 -89 -153 0 0 730 155 0 0 -405c0,-31 5,-59 15,-83 10,-24 23,-44 39,-61 16,-16 36,-29 58,-37 22,-8 46,-13 71,-13 52,0 93,17 121,50 29,33 43,80 43,142l0 406 155 0 0 -405c0,-31 5,-59 15,-83 10,-24 23,-44 39,-61 16,-16 36,-29 58,-37 22,-8 46,-13 71,-13 52,0 93,17 121,50 29,33 43,80 43,142l0 406 155 0 0 -459c0,-43 -7,-82 -21,-117 -14,-36 -34,-66 -59,-92z"/>
    <path class="fil0" d="M2345 6250c-25,-33 -57,-59 -94,-78 -38,-20 -83,-29 -135,-29 -51,0 -99,10 -143,29 -44,19 -83,46 -116,80 -33,34 -59,75 -78,122 -19,47 -28,98 -28,154 0,56 9,107 28,154 19,47 45,87 78,122 33,34 72,61 116,80 44,19 92,29 143,29 52,0 97,-10 135,-29 38,-19 69,-45 94,-78l0 88 159 0 0 -730 -159 0 0 88zm-6 369l0 0c-11,28 -26,53 -45,74 -19,21 -42,37 -69,49 -27,12 -57,18 -90,18 -35,0 -65,-6 -93,-19 -27,-12 -50,-29 -69,-50 -19,-21 -33,-46 -43,-74 -10,-28 -15,-59 -15,-91 0,-32 5,-62 15,-91 10,-28 25,-53 43,-74 19,-21 42,-38 69,-50 27,-12 58,-19 93,-19 33,0 63,6 90,18 27,12 50,28 69,49 19,21 34,45 45,74 11,28 16,59 16,93 0,34 -5,65 -16,93z"/>
    <path class="fil0" d="M3236 6526c-45,-35 -107,-58 -187,-70l-75 -11c-17,-3 -33,-5 -47,-9 -15,-3 -27,-8 -38,-13 -11,-6 -19,-13 -26,-21 -6,-9 -10,-19 -10,-32 0,-26 12,-47 36,-63 24,-16 58,-24 102,-24 23,0 45,2 67,6 22,4 43,9 63,15 20,6 38,13 54,20 16,7 30,14 41,21l69 -124c-38,-24 -83,-43 -133,-57 -51,-13 -105,-20 -162,-20 -47,0 -89,5 -126,16 -37,11 -69,26 -95,46 -26,20 -46,45 -60,74 -14,29 -21,61 -21,98 0,59 21,107 63,143 42,36 103,60 185,71l76 10c44,6 76,16 96,29 20,13 30,31 30,51 0,27 -14,49 -42,65 -28,16 -69,24 -124,24 -30,0 -57,-2 -80,-6 -24,-4 -45,-10 -65,-16 -20,-7 -37,-15 -53,-24 -16,-9 -30,-18 -43,-29l-74 120c26,20 54,36 83,48 29,12 57,22 85,29 28,7 54,11 79,14 25,2 47,3 66,3 52,0 99,-6 141,-18 41,-12 76,-28 104,-49 28,-21 50,-46 65,-75 15,-29 22,-61 22,-96 0,-62 -22,-111 -67,-146z"/>
    <path class="fil0" d="M4727 6249c-30,-34 -67,-60 -109,-78 -42,-19 -89,-28 -140,-28 -54,0 -103,9 -147,28 -44,19 -83,45 -115,78 -32,34 -57,74 -75,122 -18,47 -27,99 -27,156 0,58 9,110 27,158 18,47 44,88 77,121 33,34 72,59 118,78 46,18 96,27 151,27 55,0 108,-8 158,-23 50,-15 97,-42 142,-80l-79 -114c-30,24 -64,43 -101,57 -37,13 -74,20 -110,20 -26,0 -51,-4 -75,-11 -24,-7 -45,-18 -65,-33 -19,-15 -36,-34 -50,-58 -14,-23 -23,-52 -28,-85l539 0c1,-9 2,-19 2,-29 1,-10 1,-20 1,-30 0,-57 -9,-109 -26,-156 -17,-47 -41,-87 -71,-121zm-445 215l0 0c4,-26 11,-51 21,-73 10,-22 23,-41 39,-57 16,-16 35,-28 57,-37 22,-9 47,-13 76,-13 51,0 92,16 124,47 32,32 52,76 61,133l-379 0z"/>
    <path class="fil0" d="M6842 6250c-25,-33 -57,-59 -94,-78 -38,-20 -83,-29 -135,-29 -51,0 -99,10 -143,29 -44,19 -83,46 -116,80 -33,34 -59,75 -78,122 -19,47 -28,98 -28,154 0,56 9,107 28,154 19,47 45,87 78,122 33,34 72,61 116,80 44,19 92,29 143,29 52,0 97,-10 135,-29 38,-19 69,-45 94,-78l0 88 159 0 0 -730 -159 0 0 88zm-6 369l0 0c-11,28 -26,53 -45,74 -19,21 -42,37 -69,49 -27,12 -57,18 -90,18 -35,0 -65,-6 -93,-19 -27,-12 -50,-29 -69,-50 -19,-21 -33,-46 -43,-74 -10,-28 -15,-59 -15,-91 0,-32 5,-62 15,-91 10,-28 25,-53 43,-74 19,-21 42,-38 69,-50 27,-12 58,-19 93,-19 33,0 63,6 90,18 27,12 50,28 69,49 19,21 34,45 45,74 11,28 16,59 16,93 0,34 -5,65 -16,93z"/>
    <path class="fil0" d="M3919 6746c-26,10 -51,14 -76,14 -16,0 -31,-3 -45,-8 -14,-5 -26,-13 -37,-24 -10,-11 -19,-25 -25,-42 -6,-17 -9,-38 -9,-62l0 -318 256 0 0 -145 -256 0 0 -221 -160 0 0 221 -146 0 0 145 146 0 0 321c0,97 23,168 69,214 46,46 110,69 193,69 46,0 88,-7 125,-21 24,-9 47,-20 68,-32l-54 -133c-15,8 -32,16 -49,22z"/>
    <path class="fil0" d="M5356 6143c-45,0 -85,8 -121,24 -36,16 -66,55 -91,90l0 -96 -145 0 0 730 146 0 0 -401c0,-31 4,-59 13,-83 9,-24 21,-45 36,-62 15,-17 34,-29 55,-38 21,-9 45,-13 70,-13 19,0 40,2 62,7 11,2 22,5 32,9l47 -152c-13,-4 -26,-8 -39,-10 -20,-3 -42,-5 -66,-5z"/>
    <path class="fil0" d="M7570 6143c-45,0 -85,8 -121,24 -36,16 -66,55 -91,90l0 -96 -145 0 0 730 146 0 0 -401c0,-31 4,-59 13,-83 9,-24 21,-45 36,-62 15,-17 34,-29 55,-38 21,-9 45,-13 70,-13 19,0 40,2 62,7 11,2 22,5 32,9l47 -152c-13,-4 -26,-8 -39,-10 -20,-3 -42,-5 -66,-5z"/>
    <path class="fil0" d="M8313 5865l0 385c-25,-33 -57,-59 -94,-78 -38,-20 -83,-29 -135,-29 -51,0 -99,10 -143,29 -44,19 -83,46 -116,80 -33,34 -59,75 -78,122 -19,47 -28,98 -28,154 0,56 9,107 28,154 19,47 45,87 78,122 33,34 72,61 116,80 44,19 92,29 143,29 52,0 97,-10 135,-29 38,-19 69,-45 94,-78l0 88 159 0 0 -1026 -159 0zm-6 754l0 0c-11,28 -26,53 -45,74 -19,21 -42,37 -69,49 -27,12 -57,18 -90,18 -35,0 -65,-6 -93,-19 -27,-12 -50,-29 -69,-50 -19,-21 -33,-46 -43,-74 -10,-28 -15,-59 -15,-91 0,-32 5,-62 15,-91 10,-28 25,-53 43,-74 19,-21 42,-38 69,-50 27,-12 58,-19 93,-19 33,0 63,6 90,18 27,12 50,28 69,49 19,21 34,45 45,74 11,28 16,59 16,93 0,34 -5,65 -16,93z"/>
    <path class="fil0" d="M5738 6358c20,-21 44,-37 72,-48 28,-11 58,-17 91,-17 36,0 69,6 100,17 30,11 55,26 77,46l77 -127c-29,-23 -61,-42 -97,-56 -48,-20 -100,-29 -157,-29 -56,0 -109,10 -157,29 -48,20 -89,46 -124,81 -35,34 -62,75 -82,122 -20,47 -30,98 -30,152 0,55 10,106 30,152 20,47 47,87 82,121 35,34 76,61 124,81 48,20 100,29 157,29 56,0 109,-10 157,-29 36,-15 68,-33 97,-56l-77 -127c-22,20 -48,35 -77,46 -31,11 -64,17 -100,17 -33,0 -63,-6 -91,-17 -28,-11 -52,-27 -72,-48 -20,-21 -36,-45 -48,-74 -12,-29 -18,-60 -18,-95 0,-35 6,-66 18,-95 12,-29 28,-53 48,-74z"/>
   </g>
   <g>
    <path class="fil0" d="M8808 6785c11,0 21,2 30,6 9,4 17,9 24,16 7,7 12,15 16,24 4,9 6,19 6,29 0,10 -2,20 -6,29 -4,9 -9,17 -16,24 -7,7 -15,12 -24,16 -9,4 -19,6 -30,6 -11,0 -21,-2 -30,-6 -9,-4 -18,-9 -24,-16 -7,-7 -12,-15 -16,-24 -4,-9 -6,-19 -6,-29 0,-10 2,-20 6,-29 4,-9 9,-17 16,-24 7,-7 15,-12 24,-16 9,-4 19,-6 30,-6zm0 128l0 0c7,0 14,-1 21,-4 7,-3 12,-7 17,-12 5,-5 9,-11 11,-17 3,-7 4,-14 4,-21 0,-7 -1,-14 -4,-21 -3,-7 -7,-12 -11,-17 -5,-5 -10,-9 -17,-11 -7,-3 -13,-4 -21,-4 -8,0 -15,1 -21,4 -7,3 -12,7 -17,11 -5,5 -9,11 -11,17 -3,7 -4,14 -4,21 0,8 1,15 4,21 3,7 7,12 11,17 5,5 11,9 17,12 7,3 14,4 21,4zm4 -87l0 0c9,0 16,2 21,6 5,4 7,9 7,16 0,5 -2,10 -5,13 -3,3 -8,6 -15,7l21 24 -22 0 -18 -23 -2 0 0 23 -19 0 0 -66 33 0zm-14 16l0 0 0 12 14 0c3,0 5,0 7,-1 2,-1 2,-2 2,-5 0,-2 -1,-4 -2,-5 -2,-1 -4,-1 -7,-1l-14 0z"/>
   </g>
   <g>
    <path class="fil1" d="M3412 2750c0,-874 408,-1653 1044,-2157 -469,-371 -1061,-594 -1706,-594 -1519,0 -2750,1231 -2750,2750 0,1519 1231,2750 2750,2750 645,0 1237,-222 1706,-594 -636,-504 -1044,-1282 -1044,-2157z"/>
    <path class="fil2" d="M3412 2750c0,874 408,1653 1044,2157 636,-504 1044,-1282 1044,-2157 0,-874 -408,-1653 -1044,-2157 -636,504 -1044,1282 -1044,2157z"/>
    <path class="fil3" d="M8726 4238l0 -81 -33 0 0 -22 89 0 0 22 -33 0 0 81 -24 0zm172 0l0 0 0 -71 -23 61 -26 0 -23 -61 0 71 -24 0 0 -103 34 0 26 66 25 -66 34 0 0 103 -24 0z"/>
    <path class="fil3" d="M6162 0c-645,0 -1237,222 -1706,594 636,504 1044,1282 1044,2157 0,874 -408,1653 -1044,2157 469,371 1061,594 1706,594 1519,0 2750,-1231 2750,-2750 0,-1519 -1231,-2750 -2750,-2750z"/>
   </g>
  </g>
 </g>
</svg>
