<?xml version="1.0" encoding="iso-8859-1"?>
<!-- Generator: Adobe Illustrator 19.0.0, SVG Export Plug-In . SVG Version: 6.00 Build 0)  -->
<svg version="1.1" id="Layer_1" xmlns="http://www.w3.org/2000/svg" xmlns:xlink="http://www.w3.org/1999/xlink" x="0px" y="0px"
	 viewBox="0 0 512 512" style="enable-background:new 0 0 512 512;" xml:space="preserve">
<path style="fill:#A5A5A5;" d="M503.916,83.538v32.339H8.084V83.538c0-23.812,19.304-43.116,43.116-43.116h409.6
	C484.612,40.423,503.916,59.727,503.916,83.538z"/>
<path style="fill:#E9F2F4;" d="M503.916,105.098v301.819c0,23.813-19.304,43.117-43.116,43.117H51.2
	c-23.812,0-43.116-19.304-43.116-43.117V105.098h64.674V29.644c0-11.906,9.651-21.559,21.558-21.559h86.232
	c11.906,0,21.558,9.653,21.558,21.559v75.455H503.916z"/>
<path style="fill:#C3E4ED;" d="M202.105,29.643v75.456H72.758V29.643c0-11.906,9.651-21.558,21.558-21.558h86.232
	C192.454,8.085,202.105,17.737,202.105,29.643z"/>
<path style="fill:#B2D1D8;" d="M180.547,45.812v21.559c0,5.953-4.826,10.779-10.779,10.779h-64.674
	c-5.953,0-10.779-4.826-10.779-10.779V45.812c0-5.953,4.826-10.779,10.779-10.779h64.674
	C175.722,35.033,180.547,39.859,180.547,45.812z"/>
<path style="fill:#CFDFE2;" d="M428.463,401.528H83.537c-11.906,0-21.558-9.651-21.558-21.558V261.396
	c0-11.906,9.651-21.558,21.558-21.558h344.926c11.906,0,21.558,9.651,21.558,21.558v118.573
	C450.021,391.876,440.37,401.528,428.463,401.528z M202.105,175.164v-0.001c0-11.906-9.651-21.558-21.558-21.558H83.537
	c-11.906,0-21.558,9.651-21.558,21.558v0.001c0,11.906,9.651,21.558,21.558,21.558h97.011
	C192.454,196.722,202.105,187.07,202.105,175.164z M450.021,175.164v-0.001c0-11.906-9.651-21.558-21.558-21.558H256
	c-11.906,0-21.558,9.651-21.558,21.558v0.001c0,11.906,9.651,21.558,21.558,21.558h172.463
	C440.37,196.722,450.021,187.07,450.021,175.164z"/>
<path style="fill:#84A7B7;" d="M497.601,436.639l-60.974-60.977c-8.418-8.419-22.069-8.419-30.487,0l-24.322-24.323v0.001
	c29.79-44.028,25.199-104.377-13.787-143.364c-44.199-44.2-115.86-44.2-160.059,0s-44.199,115.864,0,160.064
	c38.986,38.986,99.333,43.577,143.36,13.787h-0.001l24.322,24.323c-8.418,8.419-8.418,22.069,0,30.488l60.975,60.977
	c8.418,8.419,22.069,8.419,30.487,0l30.487-30.488C506.02,458.709,506.02,445.059,497.601,436.639z"/>
<path style="fill:#256277;" d="M381.817,351.34l24.322,24.323l-30.487,30.488l-24.322-24.323c5.887-3.984,11.487-8.575,16.7-13.787
	C373.243,362.827,377.833,357.228,381.817,351.34z"/>
<path style="fill:#C3E4ED;" d="M363.453,288.009c0,41.672-33.781,75.455-75.453,75.455s-75.453-33.782-75.453-75.455
	s33.781-75.455,75.453-75.455S363.453,246.336,363.453,288.009z"/>
<path style="fill:#DCF3F9;" d="M359.077,262.663l-96.422,96.424c-14.102-5.029-26.274-14.126-35.084-25.891l105.616-105.62
	C344.951,236.389,354.047,248.56,359.077,262.663z M313.345,216.93l-96.422,96.424c1.263,3.541,2.779,6.96,4.534,10.235
	L323.58,221.463C320.306,219.71,316.886,218.193,313.345,216.93z"/>
<path style="fill:#FFFFFF;" d="M288.337,231.586c11.906,0,21.558,9.653,21.558,21.559c0,11.906-9.651,21.559-21.558,21.559
	c-11.906,0-21.558-9.653-21.558-21.559C266.779,241.239,276.43,231.586,288.337,231.586z"/>
<path style="fill:#4C4C4C;" d="M512,406.918V83.54c0-28.232-22.969-51.201-51.2-51.201H210.189v-2.695
	c0-16.345-13.297-29.643-29.642-29.643H94.316c-16.345,0-29.642,13.298-29.642,29.643v2.695H51.2C22.969,32.338,0,55.307,0,83.54
	v323.378c0,28.232,22.969,51.201,51.2,51.201h334.147c0.115,0,0.23-0.002,0.344-0.008l45.22,45.222
	c5.779,5.779,13.369,8.666,20.96,8.666c7.591,0,15.181-2.889,20.96-8.667l30.487-30.488c5.599-5.599,8.682-13.043,8.682-20.961
	c0-7.082-2.467-13.785-6.993-19.128c0.047-0.077,0.094-0.154,0.139-0.233C509.63,424.771,512,415.917,512,406.918z M80.842,29.644
	c0-7.43,6.044-13.475,13.474-13.475h86.232c7.43,0,13.474,6.045,13.474,13.474v67.371H80.842V29.644z M16.168,83.54
	c0-19.317,15.716-35.033,35.032-35.033h13.474v48.506H16.168V83.54z M373.746,373.757c3.221-3.221,6.221-6.577,9.002-10.054
	l11.959,11.959l-19.055,19.055l-11.953-11.953C367.186,379.968,370.539,376.964,373.746,373.757z M362.313,362.324
	c-4.674,4.675-9.71,8.854-15.045,12.513c-0.316,0.183-0.622,0.39-0.915,0.62c-17.129,11.482-37.267,17.651-58.352,17.651
	c-28.072,0-54.463-10.933-74.313-30.784s-30.781-46.243-30.781-74.314c0-28.072,10.932-54.465,30.781-74.314
	c20.489-20.489,47.4-30.734,74.313-30.734c26.913,0,53.825,10.244,74.313,30.734c36.117,36.118,40.398,92.202,12.847,133.054
	c-0.033,0.048-0.066,0.096-0.097,0.144C371.38,352.337,367.13,357.507,362.313,362.324z M491.884,461.411L461.397,491.9
	c-5.255,5.255-13.802,5.253-19.055,0l-60.974-60.978c-5.254-5.253-5.254-13.801,0-19.054l30.487-30.488
	c2.627-2.628,6.077-3.94,9.527-3.94s6.901,1.313,9.527,3.94l60.974,60.977c2.545,2.544,3.946,5.928,3.946,9.527
	C495.832,455.483,494.429,458.867,491.884,461.411z M495.832,406.918c0,4.737-0.957,9.412-2.793,13.727l-50.697-50.699
	c-5.599-5.599-13.043-8.682-20.96-8.682c-5.145,0-10.09,1.302-14.459,3.751l-14.809-14.809
	c27.804-46.56,21.683-107.893-18.369-147.945c-47.28-47.282-124.211-47.282-171.492,0c-22.904,22.905-35.518,53.357-35.518,85.749
	s12.614,62.843,35.518,85.748c22.903,22.905,53.356,35.52,85.745,35.52c22.263,0,43.612-5.96,62.22-17.123l14.783,14.782
	c-2.448,4.37-3.75,9.315-3.75,14.46c0,7.727,2.937,15.004,8.284,20.554H51.2c-19.316,0-35.032-15.716-35.032-35.033V113.183h479.663
	V406.918z M495.832,97.014H210.189V48.507H460.8c19.316,0,35.032,15.716,35.032,35.033V97.014z M287.999,204.47
	c-22.314,0-43.291,8.69-59.07,24.468c-32.571,32.573-32.571,85.571,0,118.144c16.285,16.285,37.678,24.428,59.07,24.428
	c21.392,0,42.784-8.143,59.07-24.428c32.571-32.573,32.571-85.571,0-118.144C331.292,213.16,310.313,204.47,287.999,204.47z
	 M335.637,335.647c-26.268,26.267-69.008,26.267-95.274,0c-26.267-26.267-26.267-69.008,0-95.275
	c12.725-12.726,29.642-19.733,47.636-19.733c17.994,0,34.913,7.007,47.636,19.733C361.903,266.638,361.903,309.38,335.637,335.647z
	 M393.432,72.222V73.3c0,4.466-3.62,8.084-8.084,8.084s-8.084-3.62-8.084-8.084v-1.078c0-4.466,3.62-8.084,8.084-8.084
	S393.432,67.756,393.432,72.222z M458.105,72.222V73.3c0,4.466-3.62,8.084-8.084,8.084s-8.084-3.62-8.084-8.084v-1.078
	c0-4.466,3.62-8.084,8.084-8.084S458.105,67.756,458.105,72.222z M425.768,72.222V73.3c0,4.466-3.62,8.084-8.084,8.084
	c-4.465,0-8.084-3.62-8.084-8.084v-1.078c0-4.466,3.62-8.084,8.084-8.084C422.149,64.137,425.768,67.756,425.768,72.222z"/>
<g>
</g>
<g>
</g>
<g>
</g>
<g>
</g>
<g>
</g>
<g>
</g>
<g>
</g>
<g>
</g>
<g>
</g>
<g>
</g>
<g>
</g>
<g>
</g>
<g>
</g>
<g>
</g>
<g>
</g>
</svg>
