<svg version="1" xmlns="http://www.w3.org/2000/svg" width="933.333" height="933.333" viewBox="0 0 700.000000 700.000000"><path d="M517.9 150c-37.1 82.5-67.6 150-67.9 149.9-.4 0-33-72.3-123-273.1C320.7 12.6 315.3 1 315 1 314.6 1 7.9 681.7 1.3 697.2L.1 700h115.4l37.1-82.8 37.1-82.7 77.2-.9c42.5-.4 77.4-.6 77.7-.3.3.3-16 37.1-36.2 81.8-20.1 44.8-36.9 82.2-37.1 83.1-.5 1.7 5.7 1.8 121.3 1.8h121.9l28.7-64.2 28.8-64.1-30.6-68.1c-16.8-37.5-31.4-69.7-32.3-71.7l-1.7-3.5 73.8-164.5c40.6-90.4 83.9-186.8 96.2-214.2L699.8 0H585.3l-67.4 150zm-164 193.2c21 46.6 38.1 84.9 38.1 85.2 0 .4-34.7.6-77.1.6-73 0-77.1-.1-76.7-1.8 1.3-4.8 76.3-170.1 76.9-169.5.4.5 17.8 38.9 38.8 85.5z"/></svg>