<?xml version="1.0" encoding="iso-8859-1"?><svg xmlns="http://www.w3.org/2000/svg" xmlns:xlink="http://www.w3.org/1999/xlink"><symbol viewBox="-5 -5 522 522" id="about-me" xmlns="http://www.w3.org/2000/svg"><path d="M86.071 441.452a18.896 18.896 0 0 1 4.213 15.326l-6.891 41.43a8.091 8.091 0 0 1-9.304 6.659c-4.404-.736-7.379-4.91-6.645-9.323l6.891-41.431a2.673 2.673 0 0 0-.601-2.189 2.66 2.66 0 0 0-2.057-.955H32.452a2.66 2.66 0 0 0-2.057.955 2.675 2.675 0 0 0-.603 2.189l6.891 41.431c.734 4.414-2.241 8.587-6.645 9.323-4.401.734-8.569-2.246-9.303-6.659l-6.891-41.431a18.9 18.9 0 0 1 4.215-15.327 18.814 18.814 0 0 1 14.393-6.684H45.81v-83.172c0-4.474 3.62-8.101 8.084-8.101h118.568c4.465 0 8.084 3.627 8.084 8.101s-3.62 8.101-8.084 8.101H61.979v75.071h9.699a18.811 18.811 0 0 1 14.393 6.686zm245.382 39.221H180.547c-4.465 0-8.084 3.627-8.084 8.101 0 4.474 3.62 8.101 8.084 8.101h150.905c4.465 0 8.084-3.627 8.084-8.101.001-4.474-3.619-8.101-8.083-8.101z" fill="#84a7b7"/><path d="M378.65 300.935l-28.255 113.257c-4.799 19.234-22.044 32.727-41.829 32.727H203.431c-19.785 0-37.03-13.493-41.829-32.727l-28.255-113.257c-3.402-13.635 6.889-26.843 20.914-26.843h203.473c14.028 0 24.318 13.209 20.916 26.843z" fill="#547d87"/><path d="M481.302 356.408a8.081 8.081 0 0 1-7.028 4.097H319.97c-10.419 25.812-35.553 43.206-63.97 43.206-31.674 0-59.284-21.602-66.966-52.395l-5.872-23.538c-6.804-27.27 13.779-53.686 41.829-53.686h117.242l-17.516 70.211h135.338L385.263 218.39a42.827 42.827 0 0 1-21.473 5.746H148.212c-23.812 0-43.116-19.344-43.116-43.206v-21.603c0-83.519 67.562-151.223 150.905-151.223s150.905 67.705 150.905 151.223v21.603a43.069 43.069 0 0 1-9.224 26.691l83.539 140.642a8.116 8.116 0 0 1 .081 8.145z" fill="#6b95a0"/><path d="M503.916 328.1c0 17.896-14.477 32.405-32.337 32.405-17.86 0-32.337-14.508-32.337-32.405 0-17.896 14.477-32.405 32.337-32.405 17.86 0 32.337 14.509 32.337 32.405zM40.421 295.695c-17.86 0-32.337 14.508-32.337 32.405s14.477 32.405 32.337 32.405 32.337-14.508 32.337-32.405c0-17.896-14.477-32.405-32.337-32.405z" fill="#547d87"/><path d="M51.2 328.1c0 5.966-4.826 10.802-10.779 10.802s-10.779-4.835-10.779-10.802 4.826-10.802 10.779-10.802S51.2 322.135 51.2 328.1zm420.379-10.801c-5.953 0-10.779 4.835-10.779 10.802s4.826 10.802 10.779 10.802 10.779-4.835 10.779-10.802c0-5.966-4.826-10.802-10.779-10.802z" fill="#6b95a0"/><path d="M199.411 381.029v1.08c0 4.474-3.62 8.101-8.084 8.101-4.465 0-8.084-3.627-8.084-8.101v-1.08c0-4.474 3.62-8.101 8.084-8.101 4.464 0 8.084 3.627 8.084 8.101z" fill="#fc8059"/><path d="M231.747 381.029v1.08c0 4.474-3.62 8.101-8.084 8.101-4.465 0-8.084-3.627-8.084-8.101v-1.08c0-4.474 3.62-8.101 8.084-8.101 4.465 0 8.084 3.627 8.084 8.101z" fill="#ffd880"/><path d="M317.979 381.029v1.08c0 4.474-3.62 8.101-8.084 8.101-4.465 0-8.084-3.627-8.084-8.101v-1.08c0-4.474 3.62-8.101 8.084-8.101 4.464 0 8.084 3.627 8.084 8.101z" fill="#b5e5bc"/><path d="M212.884 349.703h-21.558c-5.953 0-10.779-4.826-10.779-10.779v-21.648c0-5.953 4.826-10.779 10.779-10.779h21.558c5.953 0 10.779 4.826 10.779 10.779v21.648c0 5.954-4.826 10.779-10.779 10.779z" fill="#cfdfe2"/><path d="M158.989 121.519c0-29.827 24.13-54.008 53.895-54.008s53.895 24.18 53.895 54.008-24.13 54.008-53.895 54.008-53.895-24.18-53.895-54.008z" fill="#547d87"/><path d="M180.547 121.519c0-17.896 14.477-32.405 32.337-32.405s32.337 14.508 32.337 32.405-14.477 32.405-32.337 32.405-32.337-14.508-32.337-32.405z" fill="#cfdfe2"/><path d="M212.884 121.519c0-8.949 7.239-16.203 16.168-16.203s16.168 7.254 16.168 16.203-7.239 16.203-16.168 16.203-16.168-7.254-16.168-16.203z" fill="#fff"/><path d="M427.65 41.321c44.199 44.292 44.199 116.104 0 160.396s-115.86 44.292-160.059 0-44.199-116.104 0-160.396 115.86-44.292 160.059 0z" fill="#84a7b7"/><path d="M423.074 121.519c0 41.759-33.781 75.611-75.453 75.611s-75.453-33.852-75.453-75.611 33.781-75.611 75.453-75.611 75.453 33.853 75.453 75.611z" fill="#c3e4ed"/><path d="M392.807 60.962a75.77 75.77 0 0 1 25.89 35.159l-96.422 96.625c-14.102-5.04-26.274-14.155-35.084-25.945L392.807 60.962zm-116.262 85.956a75.226 75.226 0 0 0 4.534 10.256L383.201 54.836a74.936 74.936 0 0 0-10.235-4.542l-96.421 96.624z" fill="#dcf3f9"/><path d="M347.957 64.98c11.906 0 21.558 9.672 21.558 21.603s-9.651 21.603-21.558 21.603c-11.906 0-21.558-9.672-21.558-21.603s9.653-21.603 21.558-21.603z" fill="#fff"/><path d="M339.537 500.928c0 4.474-3.618 8.101-8.084 8.101H180.547c-4.466 0-8.084-3.627-8.084-8.101 0-4.474 3.618-8.101 8.084-8.101h150.905c4.466-.001 8.085 3.626 8.085 8.101zM512 328.101c0 22.335-18.132 40.506-40.421 40.506-15.48 0-28.955-8.765-35.743-21.603H369.36a10.21 10.21 0 0 1-.35 0h-91.452c-4.466 0-8.084-3.626-8.084-8.101s3.618-8.101 8.084-8.101h85.31l7.94-31.831a13.442 13.442 0 0 0-2.45-11.583 13.38 13.38 0 0 0-10.62-5.193H154.263a13.38 13.38 0 0 0-10.62 5.193 13.436 13.436 0 0 0-2.45 11.583l28.255 113.255c3.905 15.658 17.881 26.592 33.985 26.592h105.135c16.104 0 30.08-10.934 33.985-26.592l13.394-53.686a8.09 8.09 0 0 1 9.805-5.895c4.332 1.085 6.965 5.484 5.882 9.825l-13.394 53.686c-5.709 22.882-26.134 38.863-49.672 38.863H203.432c-23.538 0-43.963-15.982-49.672-38.865l-16.51-66.182H76.164c-5.574 10.541-15.659 18.338-27.659 20.79v71.024h11.528a18.815 18.815 0 0 1 14.393 6.685 18.894 18.894 0 0 1 4.215 15.324l-6.892 41.432a8.09 8.09 0 0 1-7.965 6.77c-.441 0-.888-.036-1.339-.112-4.403-.735-7.379-4.909-6.645-9.323l6.891-41.431a2.673 2.673 0 0 0-.601-2.189 2.66 2.66 0 0 0-2.057-.955H20.809a2.66 2.66 0 0 0-2.057.955 2.673 2.673 0 0 0-.601 2.19l6.891 41.43c.734 4.414-2.242 8.588-6.645 9.323-4.42.739-8.569-2.245-9.303-6.658l-6.892-41.431a18.895 18.895 0 0 1 4.215-15.326 18.812 18.812 0 0 1 14.393-6.685h11.528v-71.023C13.909 366.999 0 350.632 0 331.072c0-22.335 18.132-40.506 40.421-40.506s40.421 18.17 40.421 40.506c0 .909-.029 1.807-.088 2.7h52.455l-7.703-30.871c-2.229-8.936-.264-18.225 5.393-25.485 5.657-7.26 14.172-11.424 23.364-11.424h203.474c9.191 0 17.708 4.165 23.364 11.424 5.657 7.261 7.622 16.55 5.393 25.485l-6.961 27.9h51.714a40.969 40.969 0 0 1-.088-2.7c0-13.215 6.348-24.973 16.148-32.37l-40.478-68.148c-33.636 18.839-74.394 20.393-109.202 4.653H148.211c-28.231 0-51.2-23.016-51.2-51.308v-21.603C97.011 71.473 168.333.001 256 .001c16.758 0 33.244 2.602 49.054 7.738 43.144-16.134 93.68-6.852 128.314 27.853 47.28 47.381 47.28 124.473 0 171.854a121.792 121.792 0 0 1-12.977 11.291l41.585 70.013a40.22 40.22 0 0 1 9.603-1.155c22.289 0 40.421 18.171 40.421 40.506zM271.391 216.034a122.731 122.731 0 0 1-9.517-8.588c-15.088-15.122-25.712-33.525-31.204-53.605a40.302 40.302 0 0 1-17.786 4.134c-22.289 0-40.421-18.171-40.421-40.506s18.132-40.506 40.421-40.506a40.408 40.408 0 0 1 19.918 5.276c5.901-17.371 15.745-33.29 29.073-46.647a121.31 121.31 0 0 1 21.024-16.852A143.114 143.114 0 0 0 256 16.203c-78.752 0-142.821 64.205-142.821 143.122v21.603c0 19.358 15.715 35.105 35.032 35.105h123.18v.001zm-45.033-94.515c0-7.695.709-15.282 2.097-22.684-4.351-3.676-9.779-5.67-15.57-5.67-13.372 0-24.253 10.903-24.253 24.303s10.88 24.303 24.253 24.303a24.175 24.175 0 0 0 14.441-4.784 123.37 123.37 0 0 1-.968-15.468zm195.575 74.47c19.851-19.891 30.783-46.339 30.783-74.47s-10.932-54.578-30.783-74.47c-19.849-19.893-46.241-30.847-74.312-30.847-13.492 0-26.594 2.531-38.769 7.367-.401.202-.818.37-1.247.504-12.676 5.227-24.313 12.97-34.296 22.975-19.85 19.891-30.783 46.339-30.783 74.47s10.932 54.578 30.783 74.47c40.974 41.063 107.65 41.063 148.624.001zM64.674 331.072c0-13.4-10.88-24.303-24.253-24.303s-24.253 10.902-24.253 24.303c0 13.4 10.88 24.303 24.253 24.303s24.253-10.903 24.253-24.303zm431.158-2.971c0-13.4-10.88-24.303-24.253-24.303a24.078 24.078 0 0 0-10.018 2.17c-8.388 3.828-14.235 12.308-14.235 22.132a24.293 24.293 0 0 0 1.434 8.24c3.376 9.357 12.33 16.064 22.818 16.064 13.373.001 24.254-10.902 24.254-24.303zm-64.674-206.582c0 22.361-8.69 43.383-24.467 59.194-15.778 15.812-36.756 24.519-59.07 24.519s-43.291-8.708-59.07-24.519c-15.777-15.811-24.467-36.833-24.467-59.194s8.69-43.383 24.467-59.194 36.756-24.519 59.07-24.519 43.291 8.708 59.07 24.519 24.467 36.834 24.467 59.194zm-16.169 0c0-18.032-7.007-34.986-19.733-47.736-12.722-12.753-29.641-19.775-47.635-19.775s-34.913 7.022-47.635 19.774c-12.726 12.75-19.733 29.704-19.733 47.737s7.007 34.986 19.733 47.736c12.723 12.753 29.641 19.774 47.635 19.774s34.913-7.022 47.635-19.774c12.726-12.749 19.733-29.703 19.733-47.736zM212.884 298.397c10.401 0 18.863 8.48 18.863 18.903v21.603c0 10.423-8.463 18.903-18.863 18.903h-21.558c-10.401 0-18.863-8.48-18.863-18.903V317.3c0-10.423 8.463-18.903 18.863-18.903h21.558zm0 16.201h-21.558a2.7 2.7 0 0 0-2.695 2.7v21.603a2.7 2.7 0 0 0 2.695 2.7h21.558a2.7 2.7 0 0 0 2.695-2.7v-21.603a2.7 2.7 0 0 0-2.695-2.7z" fill="#4c4c4c"/></symbol><symbol viewBox="-5 -5 522 522" id="blog" xmlns="http://www.w3.org/2000/svg"><path d="M503.916 460.8c0 23.812-19.304 43.116-43.116 43.116H51.2c-23.812 0-43.116-19.304-43.116-43.116s19.304-43.116 43.116-43.116h409.6c23.812 0 43.116 19.304 43.116 43.116z" fill="#a5a5a5"/><path d="M471.579 158.989v237.137c0 23.812-19.304 43.116-43.116 43.116H83.537c-23.812 0-43.116-19.304-43.116-43.116V158.989c0-23.812 19.304-43.116 43.116-43.116h344.926c23.812.001 43.116 19.305 43.116 43.116z" fill="#cccac4"/><path d="M428.463 417.684H83.537c-11.906 0-21.558-9.651-21.558-21.558V158.989c0-11.906 9.651-21.558 21.558-21.558h344.926c11.906 0 21.558 9.651 21.558 21.558v237.137c0 11.907-9.651 21.558-21.558 21.558z" fill="#f2efe2"/><path d="M401.516 204.8H110.484c-8.929 0-16.168-7.239-16.168-16.168 0-8.929 7.239-16.168 16.168-16.168h291.032c8.929 0 16.168 7.239 16.168 16.168 0 8.929-7.239 16.168-16.168 16.168zm-156.295 40.421c0-8.929-7.239-16.168-16.168-16.168H110.484c-8.929 0-16.168 7.239-16.168 16.168 0 8.929 7.239 16.168 16.168 16.168h118.568c8.93 0 16.169-7.239 16.169-16.168zm172.463 0c0-8.929-7.239-16.168-16.168-16.168H282.947c-8.929 0-16.168 7.239-16.168 16.168 0 8.929 7.239 16.168 16.168 16.168h118.568c8.93 0 16.169-7.239 16.169-16.168z" fill="#bfbba3"/><path d="M401.516 379.958H110.484c-8.929 0-16.168-7.239-16.168-16.168v-64.674c0-8.929 7.239-16.168 16.168-16.168h291.032c8.929 0 16.168 7.239 16.168 16.168v64.674c0 8.929-7.239 16.168-16.168 16.168z" fill="#ffd880"/><path d="M143.361 370.496l-2.258 2.258.083.083-18.495 18.495a7.077 7.077 0 0 1-10.008 0L94.19 372.837l.083-.083-2.258-2.258c-6.466-6.466-6.466-16.949 0-23.415 6.466-6.466 16.949-6.466 23.415 0l2.258 2.258 2.258-2.258c6.466-6.466 16.949-6.466 23.415 0 6.466 6.466 6.466 16.949 0 23.415z" fill="#fc8059"/><path d="M372.413 291.212l-21.558 28.744c-4.312 5.748-12.935 5.748-17.246 0l-21.558-28.744a10.781 10.781 0 0 1-2.156-6.467V29.642c0-11.906 9.651-21.558 21.558-21.558h21.558c11.906 0 21.558 9.651 21.558 21.558v255.102a10.79 10.79 0 0 1-2.156 6.468z" fill="#d6a154"/><path d="M366.484 299.116l-15.629 20.839c-4.312 5.748-12.935 5.748-17.246 0l-15.629-20.839h48.504z" fill="#b26932"/><path d="M309.895 256V29.642c0-11.906 9.651-21.558 21.558-21.558h21.558c11.906 0 21.558 9.651 21.558 21.558V256h-64.674z" fill="#ffd880"/><path d="M342.232 256V8.084h10.779c11.906 0 21.558 9.651 21.558 21.558V256h-32.337z" fill="#fcc159"/><path d="M374.568 29.642V51.2h-64.674V29.642c0-11.906 9.651-21.558 21.558-21.558h21.558c11.907 0 21.558 9.652 21.558 21.558z" fill="#fc8059"/><path d="M477.068 412.237a50.972 50.972 0 0 0 2.596-16.11V158.989c0-28.231-22.969-51.2-51.2-51.2h-45.811V29.642C382.653 13.298 369.355 0 353.01 0h-21.558c-16.344 0-29.642 13.298-29.642 29.642v78.147H83.537c-28.231 0-51.2 22.969-51.2 51.2v237.137a50.99 50.99 0 0 0 2.596 16.11C14.43 419.065 0 438.368 0 460.8 0 489.031 22.969 512 51.2 512h409.6c28.231 0 51.2-22.969 51.2-51.2 0-22.432-14.43-41.735-34.932-48.563zM317.979 29.642c0-7.43 6.044-13.474 13.474-13.474h21.558c7.43 0 13.474 6.044 13.474 13.474v13.474H317.98V29.642zm48.505 29.642v188.632h-16.168V59.284h16.168zm-48.505 0h16.168v188.632h-16.168V59.284zm0 204.8h48.505v20.66c0 .579-.192 1.153-.539 1.617l-21.558 28.743c-.704.938-1.652 1.078-2.156 1.078s-1.452-.14-2.156-1.078l-21.557-28.741a2.722 2.722 0 0 1-.54-1.619v-20.66zM48.505 158.989c0-19.317 15.715-35.032 35.032-35.032h218.274v160.786c0 4.053 1.339 8.071 3.773 11.318l21.558 28.743c3.596 4.796 9.096 7.545 15.091 7.545s11.495-2.75 15.091-7.545l21.558-28.742a18.981 18.981 0 0 0 3.773-11.319V123.958h45.811c19.317 0 35.032 15.715 35.032 35.032v237.137c0 19.317-15.715 35.032-35.032 35.032H83.537c-19.317 0-35.032-15.715-35.032-35.032V158.989zM460.8 495.832H51.2c-19.317 0-35.032-15.715-35.032-35.032 0-16.257 11.071-30.113 26.426-33.963 9.349 12.434 24.222 20.49 40.943 20.49h344.926c16.72 0 31.594-8.056 40.943-20.49 15.355 3.85 26.426 17.707 26.426 33.963 0 19.317-15.715 35.032-35.032 35.032zm-288.337-24.253a8.082 8.082 0 0 1-8.084 8.084H78.147c-4.466 0-8.084-3.618-8.084-8.084s3.618-8.084 8.084-8.084h86.232a8.082 8.082 0 0 1 8.084 8.084zm269.474 0a8.082 8.082 0 0 1-8.084 8.084H272.168c-4.466 0-8.084-3.618-8.084-8.084s3.618-8.084 8.084-8.084h161.684a8.083 8.083 0 0 1 8.085 8.084zm-198.333 0a8.082 8.082 0 0 1-8.084 8.084h-1.078c-4.466 0-8.084-3.618-8.084-8.084s3.618-8.084 8.084-8.084h1.078a8.082 8.082 0 0 1 8.084 8.084zm-33.415 0a8.082 8.082 0 0 1-8.084 8.084h-1.078c-4.466 0-8.084-3.618-8.084-8.084s3.618-8.084 8.084-8.084h1.078a8.082 8.082 0 0 1 8.084 8.084z" fill="#4c4c4c"/></symbol><symbol viewBox="-5 -5 522 522" id="contact" xmlns="http://www.w3.org/2000/svg"><path d="M418.683 425.769H95.322c-23.812 0-43.116-19.304-43.116-43.116V129.348c0-23.812 19.304-43.116 43.116-43.116h323.361c23.812 0 43.116 19.304 43.116 43.116v253.305c0 23.812-19.304 43.116-43.116 43.116z" fill="#e9f2f4"/><path d="M461.799 143.098v239.781c0 23.687-19.303 42.888-43.115 42.888H95.321c-23.812 0-43.115-19.202-43.115-42.888V139.997l182.188 108.671c16.503 9.843 37.131 9.77 53.562-.19l173.843-105.38z" fill="#cfdfe2"/><path d="M502.195 278.276l-31.929 42.578c-1.603 2.137-4.899 3.016-7.362 1.963-1.182-.507-2.011-1.399-2.303-2.483l-4.731-17.561L84.565 402.795l-5.227 1.393a56.776 56.776 0 0 1-14.632 1.924c-24.985 0-47.907-16.607-54.674-41.729-8.067-29.948 9.837-60.842 39.917-68.917l2.259-.66v16.766c-20.3 6.545-32.143 27.913-26.557 48.649 5.768 21.415 27.971 34.174 49.504 28.431l5.205-1.387 371.326-100.028-9.766-36.254c-.292-1.083-.024-2.269.746-3.296 1.603-2.137 4.899-3.016 7.362-1.962l49.053 20.993c4.926 2.107 6.32 7.283 3.114 11.558z" fill="#84a7b7"/><path d="M410.089 338.728a8.086 8.086 0 0 1-5.732 9.893l-104.25 27.751a8.11 8.11 0 0 1-2.085.274 8.086 8.086 0 0 1-2.075-15.899l104.25-27.751a8.087 8.087 0 0 1 9.892 5.732zm98.569-55.598l-31.971 42.579c-3.825 5.098-11.139 7.054-17.012 4.542h-.001c-3.468-1.483-5.994-4.33-6.933-7.812l-6.176-22.901L76.558 399.08l-5.233 1.394c-2.02.537-4.042.959-6.063 1.269 6.32 9.805 17.285 15.942 29.531 15.942h323.78c19.347 0 35.087-15.612 35.087-34.804v-28.234a8.084 8.084 0 0 1 8.084-8.084 8.083 8.083 0 0 1 8.084 8.084v28.234c0 28.106-22.993 50.973-51.255 50.973H94.793c-21.348 0-40.038-12.814-47.702-32.279-21.09-3.635-39.235-19.057-45.134-40.925-3.907-14.488-1.924-29.631 5.587-42.642 7.547-13.071 19.756-22.423 34.387-26.345l1.607-.469V140.132a13.349 13.349 0 0 1 0-.283V129.12c0-28.106 22.993-50.973 51.255-50.973h323.78c28.262 0 51.255 22.866 51.255 50.973v88.28a8.084 8.084 0 0 1-8.084 8.084 8.083 8.083 0 0 1-8.084-8.084v-59.957l-161.796 97.952a60.052 60.052 0 0 1-61.955.22L59.707 154.223v208.999c0 4.466-3.62 8.084-8.084 8.084s-8.084-3.618-8.084-8.084V308.06c-9.312 3.154-17.053 9.478-21.991 18.031-5.346 9.26-6.758 20.037-3.979 30.346 5.774 21.409 28.026 34.155 49.597 28.41l5.213-1.387 369.974-99.534-8.318-30.84c-.942-3.495-.181-7.233 2.088-10.255 3.828-5.098 11.142-7.053 17.012-4.542l49.117 20.994c4.653 1.989 8.024 5.751 9.247 10.322 1.222 4.563.186 9.492-2.841 13.525zM59.707 135.404l178.477 106.32a43.915 43.915 0 0 0 45.307-.161l170.169-103.02v-9.423c0-19.192-15.739-34.804-35.087-34.804H94.793c-19.347 0-35.087 15.612-35.087 34.804l.001 6.284zm435.648 138.515l-44.031-18.82 15.371 56.99 28.66-38.17zM295.946 289.88l-1.042.278a8.084 8.084 0 0 0-5.729 9.894 8.09 8.09 0 0 0 7.806 6.004c.689 0 1.391-.089 2.087-.275l1.042-.278a8.084 8.084 0 0 0 5.729-9.894c-1.15-4.314-5.576-6.883-9.893-5.729zm-40.65 10.821l-1.042.277a8.085 8.085 0 0 0 4.149 15.627l1.042-.277c4.315-1.146 6.884-5.573 5.739-9.889s-5.571-6.882-9.888-5.738zm9.382 68.369l-1.042.277a8.086 8.086 0 0 0 2.069 15.9c.687 0 1.385-.088 2.08-.273l1.042-.277a8.085 8.085 0 0 0-4.149-15.627zm135.519-106.943l-72.975 19.426a8.084 8.084 0 0 0 4.16 15.625l72.975-19.426a8.084 8.084 0 0 0-4.16-15.625z" fill="#4c4c4c"/></symbol><symbol viewBox="-5 -5 522 522" id="projects" xmlns="http://www.w3.org/2000/svg"><path d="M503.916 83.538v32.339H8.084V83.538c0-23.812 19.304-43.116 43.116-43.116h409.6c23.812.001 43.116 19.305 43.116 43.116z" fill="#a5a5a5"/><path d="M503.916 105.098v301.819c0 23.813-19.304 43.117-43.116 43.117H51.2c-23.812 0-43.116-19.304-43.116-43.117V105.098h64.674V29.644c0-11.906 9.651-21.559 21.558-21.559h86.232c11.906 0 21.558 9.653 21.558 21.559v75.455h301.81z" fill="#e9f2f4"/><path d="M202.105 29.643v75.456H72.758V29.643c0-11.906 9.651-21.558 21.558-21.558h86.232c11.906 0 21.557 9.652 21.557 21.558z" fill="#c3e4ed"/><path d="M180.547 45.812v21.559c0 5.953-4.826 10.779-10.779 10.779h-64.674c-5.953 0-10.779-4.826-10.779-10.779V45.812c0-5.953 4.826-10.779 10.779-10.779h64.674c5.954 0 10.779 4.826 10.779 10.779z" fill="#b2d1d8"/><path d="M428.463 401.528H83.537c-11.906 0-21.558-9.651-21.558-21.558V261.396c0-11.906 9.651-21.558 21.558-21.558h344.926c11.906 0 21.558 9.651 21.558 21.558v118.573c0 11.907-9.651 21.559-21.558 21.559zM202.105 175.164v-.001c0-11.906-9.651-21.558-21.558-21.558h-97.01c-11.906 0-21.558 9.651-21.558 21.558v.001c0 11.906 9.651 21.558 21.558 21.558h97.011c11.906 0 21.557-9.652 21.557-21.558zm247.916 0v-.001c0-11.906-9.651-21.558-21.558-21.558H256c-11.906 0-21.558 9.651-21.558 21.558v.001c0 11.906 9.651 21.558 21.558 21.558h172.463c11.907 0 21.558-9.652 21.558-21.558z" fill="#cfdfe2"/><path d="M497.601 436.639l-60.974-60.977c-8.418-8.419-22.069-8.419-30.487 0l-24.322-24.323v.001c29.79-44.028 25.199-104.377-13.787-143.364-44.199-44.2-115.86-44.2-160.059 0s-44.199 115.864 0 160.064c38.986 38.986 99.333 43.577 143.36 13.787h-.001l24.322 24.323c-8.418 8.419-8.418 22.069 0 30.488l60.975 60.977c8.418 8.419 22.069 8.419 30.487 0l30.487-30.488c8.418-8.418 8.418-22.068-.001-30.488z" fill="#84a7b7"/><path d="M381.817 351.34l24.322 24.323-30.487 30.488-24.322-24.323a113.85 113.85 0 0 0 30.487-30.488z" fill="#256277"/><path d="M363.453 288.009c0 41.672-33.781 75.455-75.453 75.455s-75.453-33.782-75.453-75.455 33.781-75.455 75.453-75.455 75.453 33.782 75.453 75.455z" fill="#c3e4ed"/><path d="M359.077 262.663l-96.422 96.424c-14.102-5.029-26.274-14.126-35.084-25.891l105.616-105.62c11.764 8.813 20.86 20.984 25.89 35.087zm-45.732-45.733l-96.422 96.424a75.019 75.019 0 0 0 4.534 10.235L323.58 221.463a75.205 75.205 0 0 0-10.235-4.533z" fill="#dcf3f9"/><path d="M288.337 231.586c11.906 0 21.558 9.653 21.558 21.559s-9.651 21.559-21.558 21.559c-11.906 0-21.558-9.653-21.558-21.559s9.651-21.559 21.558-21.559z" fill="#fff"/><path d="M512 406.918V83.54c0-28.232-22.969-51.201-51.2-51.201H210.189v-2.695c0-16.345-13.297-29.643-29.642-29.643H94.316c-16.345 0-29.642 13.298-29.642 29.643v2.695H51.2C22.969 32.338 0 55.307 0 83.54v323.378c0 28.232 22.969 51.201 51.2 51.201h334.147c.115 0 .23-.002.344-.008l45.22 45.222c5.779 5.779 13.369 8.666 20.96 8.666 7.591 0 15.181-2.889 20.96-8.667l30.487-30.488c5.599-5.599 8.682-13.043 8.682-20.961 0-7.082-2.467-13.785-6.993-19.128.047-.077.094-.154.139-.233A51.189 51.189 0 0 0 512 406.918zM80.842 29.644c0-7.43 6.044-13.475 13.474-13.475h86.232c7.43 0 13.474 6.045 13.474 13.474v67.371H80.842v-67.37zM16.168 83.54c0-19.317 15.716-35.033 35.032-35.033h13.474v48.506H16.168V83.54zm357.578 290.217a121.85 121.85 0 0 0 9.002-10.054l11.959 11.959-19.055 19.055-11.953-11.953a123.21 123.21 0 0 0 10.047-9.007zm-11.433-11.433a106.255 106.255 0 0 1-15.045 12.513c-.316.183-.622.39-.915.62-17.129 11.482-37.267 17.651-58.352 17.651-28.072 0-54.463-10.933-74.313-30.784s-30.781-46.243-30.781-74.314c0-28.072 10.932-54.465 30.781-74.314 20.489-20.489 47.4-30.734 74.313-30.734 26.913 0 53.825 10.244 74.313 30.734 36.117 36.118 40.398 92.202 12.847 133.054-.033.048-.066.096-.097.144a105.216 105.216 0 0 1-12.751 15.43zm129.571 99.087L461.397 491.9c-5.255 5.255-13.802 5.253-19.055 0l-60.974-60.978c-5.254-5.253-5.254-13.801 0-19.054l30.487-30.488c2.627-2.628 6.077-3.94 9.527-3.94s6.901 1.313 9.527 3.94l60.974 60.977a13.382 13.382 0 0 1 3.946 9.527 13.369 13.369 0 0 1-3.945 9.527zm3.948-54.493c0 4.737-.957 9.412-2.793 13.727l-50.697-50.699c-5.599-5.599-13.043-8.682-20.96-8.682-5.145 0-10.09 1.302-14.459 3.751l-14.809-14.809c27.804-46.56 21.683-107.893-18.369-147.945-47.28-47.282-124.211-47.282-171.492 0-22.904 22.905-35.518 53.357-35.518 85.749s12.614 62.843 35.518 85.748c22.903 22.905 53.356 35.52 85.745 35.52 22.263 0 43.612-5.96 62.22-17.123l14.783 14.782c-2.448 4.37-3.75 9.315-3.75 14.46 0 7.727 2.937 15.004 8.284 20.554H51.2c-19.316 0-35.032-15.716-35.032-35.033V113.183h479.663v293.735zm0-309.904H210.189V48.507H460.8c19.316 0 35.032 15.716 35.032 35.033v13.474zM287.999 204.47c-22.314 0-43.291 8.69-59.07 24.468-32.571 32.573-32.571 85.571 0 118.144 16.285 16.285 37.678 24.428 59.07 24.428 21.392 0 42.784-8.143 59.07-24.428 32.571-32.573 32.571-85.571 0-118.144-15.777-15.778-36.756-24.468-59.07-24.468zm47.638 131.177c-26.268 26.267-69.008 26.267-95.274 0-26.267-26.267-26.267-69.008 0-95.275 12.725-12.726 29.642-19.733 47.636-19.733 17.994 0 34.913 7.007 47.636 19.733 26.268 26.266 26.268 69.008.002 95.275zm57.795-263.425V73.3a8.085 8.085 0 0 1-16.168 0v-1.078c0-4.466 3.62-8.084 8.084-8.084s8.084 3.618 8.084 8.084zm64.673 0V73.3a8.085 8.085 0 0 1-16.168 0v-1.078c0-4.466 3.62-8.084 8.084-8.084s8.084 3.618 8.084 8.084zm-32.337 0V73.3a8.084 8.084 0 0 1-16.168 0v-1.078a8.084 8.084 0 0 1 8.084-8.084 8.082 8.082 0 0 1 8.084 8.084z" fill="#4c4c4c"/></symbol></svg>