<?xml version="1.0" encoding="utf-8"?><!DOCTYPE svg PUBLIC "-//W3C//DTD SVG 1.1//EN" "http://www.w3.org/Graphics/SVG/1.1/DTD/svg11.dtd"><svg xmlns="http://www.w3.org/2000/svg" xmlns:xlink="http://www.w3.org/1999/xlink"><symbol viewBox="-5 -5 34 34" id="icon-arrow-down" xmlns="http://www.w3.org/2000/svg"><path d="M24 12c0-6.627-5.373-12-12-12S0 5.373 0 12s5.373 12 12 12 12-5.373 12-12zM5.995 10.432L7.41 9.018 12 13.592l4.579-4.574 1.416 1.414L12 16.42l-6.005-5.988z"/></symbol><symbol viewBox="-5 -5 34 34" id="icon-box" xmlns="http://www.w3.org/2000/svg"><path d="M15.744 16.683l.349-.199v1.717l-.349.195v-1.713zm3.414-.227l.342-.196v-1.717l-.343.195v1.718zm-1.429.813l.343-.195v-1.717l-.343.195v1.717zm.578-.329l.349-.199v-1.717l-.349.199v1.717zm-1.152.656l.343-.196v-1.717l-.343.196v1.717zm-.821.467l.343-.195v-1.717l-.343.195v1.717zM23 6.941v11.507L13.25 24 1 17.022V5.515L10.767 0 23 6.941zM10.764 2.298l-2.106 1.19 8.891 5.234-.002.003 2.33-1.256-9.113-5.171zM12 12.888L3 7.67v8.19l9 5.126v-8.098zm3.493-3.056L6.646 4.624 4.158 6.029l8.86 5.138 2.475-1.335zM21 9.136l-7 3.773v8.362l7-3.985v-8.15z"/></symbol><symbol viewBox="-5 -5 34 34" id="icon-check" xmlns="http://www.w3.org/2000/svg"><path d="M20.285 2L9 13.567 3.714 8.556 0 12.272 9 21 24 5.715z"/></symbol><symbol viewBox="-5 -5 34 34" id="icon-drink-filled" xmlns="http://www.w3.org/2000/svg"><path d="M14.845 9.395c-.535-1.242-1.049-5.551-1.049-5.957 0-1.085.944-.494.058-3.002C13.751.145 12.875 0 12 0c-.875 0-1.751.145-1.854.435-.863 2.446.058 1.978.058 3.002 0 .405-.514 4.715-1.049 5.957S7 11.062 7 13.688v8.895C7 23.915 8.155 24 12 24s5-.085 5-1.417v-8.895c0-2.626-1.621-3.051-2.155-4.293zM11 14.084L11.005 22c-.508.065-1.797.138-2.005-.183v-7.864c0-2.76 1.367-1.888 2.504-5.243-.284 1.752-.504 2.651-.504 5.374z"/></symbol><symbol viewBox="-5 -5 34 34" id="icon-drink-hollow" xmlns="http://www.w3.org/2000/svg"><path d="M11 14.699v6.256c-.667.014-1.5-.064-2-.183v-6.205c0-2.76 1.367-1.888 2.504-5.243-.283 1.753-.504 2.652-.504 5.375zM12 24c-3.741 0-6 0-6-2.299v-8.154c0-2.897 1.78-3.36 2.25-4.36.434-.924.937-4.585.954-5.049l-.048-.078c-.452-.687-.578-1.372.057-3.02C9.397.557 9.882 0 12 0s2.603.557 2.788 1.042c.576 1.495.589 2.258.049 3.023-.024.535.479 4.196.913 5.121.471 1 2.25 1.464 2.25 4.36V21.7c0 2.3-2.259 2.3-6 2.3zM10.961 2.083c-.211.619-.184.801-.182.81.292.374.425.809.425 1.257 0 .387-.51 4.534-1.144 5.886C9.372 11.502 8 11.577 8 13.547v8.154c.458.426 7.544.401 8.042.023L16 13.547c0-1.968-1.372-2.046-2.061-3.51-.634-1.353-1.144-5.499-1.144-5.886 0-.661.265-1.037.407-1.238.028-.036.046-.225-.163-.829A5.48 5.48 0 0 0 12 2c-.479 0-.831.042-1.039.083z"/></symbol><symbol viewBox="-22.73 -22.73 9137.46 4628.46" shape-rendering="geometricPrecision" text-rendering="geometricPrecision" image-rendering="optimizeQuality" fill-rule="evenodd" clip-rule="evenodd" id="icon-elo-card" xmlns="http://www.w3.org/2000/svg"><defs><style>.affil0{fill:#fefefe}.affil2{fill:#faee35}.affil3{fill:#e04238}.affil1{fill:#23a0d7}</style></defs><g id="afCamada_x0020_1"><path class="affil0" d="M2702 1975L814 2789c-3-33-5-65-5-99 0-597 484-1081 1081-1081 323 0 613 142 811 367zM1891 800c891 0 1638 617 1838 1446l-762 333v-2l-779 342-1870 818C118 3437 1 3077 1 2689 1 1645 847 799 1891 799zM3211 4042c-677 642-1572 705-2359 228l445-676c448 268 897 224 1349-131l565 579zM3981 3575L3976 0h677v3478c0 33 4 63 48 80l589 229-265 690-690-292c-262-111-353-271-354-611z"/><path class="affil1" d="M6531 3514c-254-197-417-505-417-852 0-308 129-586 336-782l-437-709c-440 348-722 887-722 1491 0 652 328 1226 827 1569l413-717z"/><path class="affil2" d="M6827 1647c114-41 237-63 365-63 462 0 856 290 1010 699l838-70c-202-833-953-1452-1848-1452-253 0-494 50-715 139l350 747z"/><path class="affil3" d="M8270 2715c-27 572-499 1027-1077 1027-91 0-179-11-263-32l-329 761c186 61 385 94 592 94 1024 0 1859-810 1900-1824l-822-26z"/></g></symbol><symbol viewBox="-5 -5 34 34" id="icon-facebook" xmlns="http://www.w3.org/2000/svg"><path d="M9 8H6v4h3v12h5V12h3.642L18 8h-4V6.333C14 5.378 14.192 5 15.115 5H18V0h-3.808C10.596 0 9 1.583 9 4.615V8z"/></symbol><symbol viewBox="-5 -5 34 34" id="icon-favorite" xmlns="http://www.w3.org/2000/svg"><path d="M12 4.248C8.852-1.154 0 .423 0 7.192 0 11.853 5.571 16.619 12 23c6.43-6.381 12-11.147 12-15.808C24 .4 15.125-1.114 12 4.248z"/></symbol><symbol viewBox="-5 -5 34 34" id="icon-instagram" xmlns="http://www.w3.org/2000/svg"><path d="M12 2.163c3.204 0 3.584.012 4.85.07 3.252.148 4.771 1.691 4.919 4.919.058 1.265.069 1.645.069 4.849 0 3.205-.012 3.584-.069 4.849-.149 3.225-1.664 4.771-4.919 4.919-1.266.058-1.644.07-4.85.07-3.204 0-3.584-.012-4.849-.07-3.26-.149-4.771-1.699-4.919-4.92-.058-1.265-.07-1.644-.07-4.849 0-3.204.013-3.583.07-4.849.149-3.227 1.664-4.771 4.919-4.919 1.266-.057 1.645-.069 4.849-.069zM12 0C8.741 0 8.333.014 7.053.072 2.695.272.273 2.69.073 7.052.014 8.333 0 8.741 0 12c0 3.259.014 3.668.072 4.948.2 4.358 2.618 6.78 6.98 6.98C8.333 23.986 8.741 24 12 24c3.259 0 3.668-.014 4.948-.072 4.354-.2 6.782-2.618 6.979-6.98.059-1.28.073-1.689.073-4.948 0-3.259-.014-3.667-.072-4.947-.196-4.354-2.617-6.78-6.979-6.98C15.668.014 15.259 0 12 0zm0 5.838a6.162 6.162 0 1 0 0 12.324 6.162 6.162 0 0 0 0-12.324zM12 16a4 4 0 1 1 0-8 4 4 0 0 1 0 8zm6.406-11.845a1.44 1.44 0 1 0 0 2.881 1.44 1.44 0 0 0 0-2.881z"/></symbol><symbol viewBox="-33.42 -33.42 10066.85 13436.85" shape-rendering="geometricPrecision" text-rendering="geometricPrecision" image-rendering="optimizeQuality" fill-rule="evenodd" clip-rule="evenodd" id="icon-list" xmlns="http://www.w3.org/2000/svg"><defs><style>.ajfil0{fill:#000}</style></defs><g id="ajCamada_x0020_1"><path class="ajfil0" d="M1323 0C591 0 0 598 0 1326v10718c0 734 591 1326 1323 1326h7354c732 0 1323-592 1323-1326V1326C10000 598 9409 0 8677 0H1323zm0 337h7354c555 0 992 438 992 989v10718c0 551-437 995-992 995H1323c-549 0-992-444-992-995V1326c0-551 443-989 992-989zm638 1486c-490 0-886 403-886 894 0 492 396 894 886 894 484 0 886-403 886-894s-402-894-886-894zm0 332c307 0 555 249 555 563 0 308-248 557-555 557-313 0-555-249-555-557 0-314 242-563 555-563zm1896 397c-89 6-160 95-154 178 6 89 95 160 183 154h4743c83 0 165-77 165-166s-83-172-165-166H3856zM1961 4465c-490 0-886 403-886 894 0 492 396 894 886 894 484 0 886-403 886-894 0-492-402-894-886-894zm0 337c307 0 555 249 555 557s-248 557-555 557c-313 0-555-249-555-557s242-557 555-557zm1878 397c-89 12-154 101-142 189 12 89 101 154 189 142h4743c83 0 165-77 165-166s-83-166-165-166H3839zM1961 7111c-490 0-886 403-886 894 0 492 396 894 886 894 484 0 886-402 886-894 0-491-402-894-886-894zm0 338c307 0 555 249 555 557 0 314-248 563-555 563-313 0-555-249-555-563 0-308 242-557 555-557zm1896 391c-89 6-160 95-154 184s95 160 183 148h4743c83 6 165-77 165-166s-83-166-165-166H3856zM1961 9764c-490 0-886 403-886 888 0 491 396 894 886 894 484 0 886-403 886-894 0-486-402-888-886-888zm0 331c307 0 555 249 555 557 0 314-248 562-555 562-313 0-555-249-555-562 0-308 242-557 555-557zm1878 391c-89 12-154 107-142 189 12 89 101 160 189 148h4743c83 0 165-83 165-171 0-89-83-166-165-166H3839z" id="aj_3060995532704"/></g></symbol><symbol viewBox="-5 -5 34 34" id="icon-location" xmlns="http://www.w3.org/2000/svg"><path d="M12 0C7.802 0 4 3.403 4 7.602 4 11.8 7.469 16.812 12 24c4.531-7.188 8-12.2 8-16.398C20 3.403 16.199 0 12 0zm0 11a3 3 0 1 1 0-6 3 3 0 0 1 0 6z"/></symbol><symbol viewBox="-22.31 -22.31 8967.62 6978.62" shape-rendering="geometricPrecision" text-rendering="geometricPrecision" image-rendering="optimizeQuality" fill-rule="evenodd" clip-rule="evenodd" id="icon-mastercard-card" xmlns="http://www.w3.org/2000/svg"><defs><style>.alfil0{fill:#373435;fill-rule:nonzero}.alfil1,.alfil2,.alfil3{fill:#f9a233;fill-rule:nonzero}.alfil1,.alfil2{fill:#f27035}.alfil1{fill:#ed3438}</style></defs><g id="alCamada_x0020_1"><g id="al_2164128354416"><path class="alfil0" d="M1529 6224c-26-26-56-46-91-60s-74-21-115-21c-22 0-45 2-69 6s-47 11-70 20c-23 10-45 23-65 40-21 17-39 38-54 64-25-41-58-72-100-96-42-23-90-35-144-35-18 0-37 2-56 5s-39 9-58 17-37 19-55 33c-17 14-33 32-48 53v-89H451v730h155v-405c0-31 5-59 15-83s23-44 39-61c16-16 36-29 58-37s46-13 71-13c52 0 93 17 121 50 29 33 43 80 43 142v406h155v-405c0-31 5-59 15-83s23-44 39-61c16-16 36-29 58-37s46-13 71-13c52 0 93 17 121 50 29 33 43 80 43 142v406h155v-459c0-43-7-82-21-117-14-36-34-66-59-92zM2345 6250c-25-33-57-59-94-78-38-20-83-29-135-29-51 0-99 10-143 29s-83 46-116 80-59 75-78 122-28 98-28 154 9 107 28 154 45 87 78 122c33 34 72 61 116 80s92 29 143 29c52 0 97-10 135-29s69-45 94-78v88h159v-730h-159v88zm-6 369c-11 28-26 53-45 74s-42 37-69 49-57 18-90 18c-35 0-65-6-93-19-27-12-50-29-69-50s-33-46-43-74-15-59-15-91 5-62 15-91c10-28 25-53 43-74 19-21 42-38 69-50s58-19 93-19c33 0 63 6 90 18s50 28 69 49 34 45 45 74c11 28 16 59 16 93s-5 65-16 93zM3236 6526c-45-35-107-58-187-70l-75-11c-17-3-33-5-47-9-15-3-27-8-38-13-11-6-19-13-26-21-6-9-10-19-10-32 0-26 12-47 36-63s58-24 102-24c23 0 45 2 67 6s43 9 63 15 38 13 54 20 30 14 41 21l69-124c-38-24-83-43-133-57-51-13-105-20-162-20-47 0-89 5-126 16s-69 26-95 46-46 45-60 74-21 61-21 98c0 59 21 107 63 143s103 60 185 71l76 10c44 6 76 16 96 29s30 31 30 51c0 27-14 49-42 65s-69 24-124 24c-30 0-57-2-80-6-24-4-45-10-65-16-20-7-37-15-53-24s-30-18-43-29l-74 120c26 20 54 36 83 48s57 22 85 29 54 11 79 14c25 2 47 3 66 3 52 0 99-6 141-18 41-12 76-28 104-49s50-46 65-75 22-61 22-96c0-62-22-111-67-146zM4727 6249c-30-34-67-60-109-78-42-19-89-28-140-28-54 0-103 9-147 28s-83 45-115 78c-32 34-57 74-75 122-18 47-27 99-27 156 0 58 9 110 27 158 18 47 44 88 77 121 33 34 72 59 118 78 46 18 96 27 151 27s108-8 158-23 97-42 142-80l-79-114c-30 24-64 43-101 57-37 13-74 20-110 20-26 0-51-4-75-11s-45-18-65-33c-19-15-36-34-50-58-14-23-23-52-28-85h539c1-9 2-19 2-29 1-10 1-20 1-30 0-57-9-109-26-156s-41-87-71-121zm-445 215c4-26 11-51 21-73s23-41 39-57 35-28 57-37 47-13 76-13c51 0 92 16 124 47 32 32 52 76 61 133h-379zM6842 6250c-25-33-57-59-94-78-38-20-83-29-135-29-51 0-99 10-143 29s-83 46-116 80-59 75-78 122-28 98-28 154 9 107 28 154 45 87 78 122c33 34 72 61 116 80s92 29 143 29c52 0 97-10 135-29s69-45 94-78v88h159v-730h-159v88zm-6 369c-11 28-26 53-45 74s-42 37-69 49-57 18-90 18c-35 0-65-6-93-19-27-12-50-29-69-50s-33-46-43-74-15-59-15-91 5-62 15-91c10-28 25-53 43-74 19-21 42-38 69-50s58-19 93-19c33 0 63 6 90 18s50 28 69 49 34 45 45 74c11 28 16 59 16 93s-5 65-16 93zM3919 6746c-26 10-51 14-76 14-16 0-31-3-45-8s-26-13-37-24c-10-11-19-25-25-42s-9-38-9-62v-318h256v-145h-256v-221h-160v221h-146v145h146v321c0 97 23 168 69 214s110 69 193 69c46 0 88-7 125-21 24-9 47-20 68-32l-54-133c-15 8-32 16-49 22zM5356 6143c-45 0-85 8-121 24s-66 55-91 90v-96h-145v730h146v-401c0-31 4-59 13-83s21-45 36-62 34-29 55-38 45-13 70-13c19 0 40 2 62 7 11 2 22 5 32 9l47-152c-13-4-26-8-39-10-20-3-42-5-66-5zM7570 6143c-45 0-85 8-121 24s-66 55-91 90v-96h-145v730h146v-401c0-31 4-59 13-83s21-45 36-62 34-29 55-38 45-13 70-13c19 0 40 2 62 7 11 2 22 5 32 9l47-152c-13-4-26-8-39-10-20-3-42-5-66-5zM8313 5865v385c-25-33-57-59-94-78-38-20-83-29-135-29-51 0-99 10-143 29s-83 46-116 80-59 75-78 122-28 98-28 154 9 107 28 154 45 87 78 122c33 34 72 61 116 80s92 29 143 29c52 0 97-10 135-29s69-45 94-78v88h159V5868h-159zm-6 754c-11 28-26 53-45 74s-42 37-69 49-57 18-90 18c-35 0-65-6-93-19-27-12-50-29-69-50s-33-46-43-74-15-59-15-91 5-62 15-91c10-28 25-53 43-74 19-21 42-38 69-50s58-19 93-19c33 0 63 6 90 18s50 28 69 49 34 45 45 74c11 28 16 59 16 93s-5 65-16 93zM5738 6358c20-21 44-37 72-48s58-17 91-17c36 0 69 6 100 17 30 11 55 26 77 46l77-127c-29-23-61-42-97-56-48-20-100-29-157-29-56 0-109 10-157 29-48 20-89 46-124 81-35 34-62 75-82 122s-30 98-30 152c0 55 10 106 30 152 20 47 47 87 82 121s76 61 124 81 100 29 157 29c56 0 109-10 157-29 36-15 68-33 97-56l-77-127c-22 20-48 35-77 46-31 11-64 17-100 17-33 0-63-6-91-17s-52-27-72-48-36-45-48-74-18-60-18-95 6-66 18-95 28-53 48-74z"/><g><path class="alfil0" d="M8808 6785c11 0 21 2 30 6s17 9 24 16 12 15 16 24 6 19 6 29-2 20-6 29-9 17-16 24-15 12-24 16-19 6-30 6-21-2-30-6-18-9-24-16c-7-7-12-15-16-24s-6-19-6-29 2-20 6-29 9-17 16-24 15-12 24-16 19-6 30-6zm0 128c7 0 14-1 21-4s12-7 17-12 9-11 11-17c3-7 4-14 4-21s-1-14-4-21-7-12-11-17c-5-5-10-9-17-11-7-3-13-4-21-4s-15 1-21 4c-7 3-12 7-17 11-5 5-9 11-11 17-3 7-4 14-4 21 0 8 1 15 4 21 3 7 7 12 11 17 5 5 11 9 17 12 7 3 14 4 21 4zm4-87c9 0 16 2 21 6s7 9 7 16c0 5-2 10-5 13s-8 6-15 7l21 24h-22l-18-23h-2v23h-19v-66h33zm-14 16v12h14c3 0 5 0 7-1s2-2 2-5c0-2-1-4-2-5-2-1-4-1-7-1h-14z"/></g><g><path class="alfil1" d="M3412 2750c0-874 408-1653 1044-2157C3987 222 3395-1 2750-1 1231-1 0 1230 0 2749s1231 2750 2750 2750c645 0 1237-222 1706-594-636-504-1044-1282-1044-2157z"/><path class="alfil2" d="M3412 2750c0 874 408 1653 1044 2157 636-504 1044-1282 1044-2157 0-874-408-1653-1044-2157-636 504-1044 1282-1044 2157z"/><path class="alfil3" d="M8726 4238v-81h-33v-22h89v22h-33v81h-24zm172 0v-71l-23 61h-26l-23-61v71h-24v-103h34l26 66 25-66h34v103h-24zM6162 0c-645 0-1237 222-1706 594 636 504 1044 1282 1044 2157 0 874-408 1653-1044 2157 469 371 1061 594 1706 594 1519 0 2750-1231 2750-2750S7681 2 6162 2z"/></g></g></g></symbol><symbol viewBox="-49.35 -49.35 19838.7 11018.7" shape-rendering="geometricPrecision" text-rendering="geometricPrecision" image-rendering="optimizeQuality" fill-rule="evenodd" clip-rule="evenodd" id="icon-money-brl" xmlns="http://www.w3.org/2000/svg"><defs><style>.amfil0{fill:#000}</style></defs><path class="amfil0" d="M3159 6796l402 268 2100-3150-402-268-2100 3150zm630-3150L1689 6796l402 268 2100-3150-402-268zm13011-2596V840H2940v210c0 784-245 2100-1890 2100H840v4620h210c1645 0 1890 1316 1890 2100v210h13860v-210c0-784 245-2100 1890-2100h210V3570h-210c-1299 0-1890-1306-1890-2520zm1680 6307c-1257 84-2025 927-2095 2303H3354c-70-1376-838-2219-2095-2303V3564c1257-84 2025-927 2095-2303h13031c65 1288 728 2599 2095 2721v3376zM4410 2730c232 0 420-188 420-420s-188-420-420-420-420 188-420 420 188 420 420 420zm10920 0c232 0 420-188 420-420s-188-420-420-420-420 188-420 420 188 420 420 420zM4410 8190c-232 0-420 188-420 420s188 420 420 420 420-188 420-420-188-420-420-420zm10920 0c-232 0-420 188-420 420s188 420 420 420 420-188 420-420-188-420-420-420zm630-4442c-944 0-1712 768-1712 1712s768 1712 1712 1712 1712-768 1712-1712-768-1712-1712-1712zm0 2940c-677 0-1229-551-1229-1229 0-677 551-1229 1229-1229 677 0 1229 551 1229 1229 0 677-551 1229-1229 1229zm-4966-4025c-347-139-727-217-1124-217-1537 0-2806 1151-2990 2638-15 123-23 248-23 374 0 1664 1349 3013 3013 3013s3013-1349 3013-3013c0-1267-782-2351-1889-2796zM9970 5988v514c0 93-75 168-168 168s-168-75-168-168v-514c0-191-155-346-346-346h-871v860c0 93-75 168-168 168s-168-75-168-168V4446c0-93 75-168 168-168h1039c376 0 682 306 682 682 0 205-92 389-235 514 144 125 235 309 235 514zm1257 681h-55v263c0 93-75 168-168 168s-168-75-168-168v-263h-451c-93 0-168-75-168-168s75-168 168-168h841c191 0 346-155 346-346s-155-346-346-346h-465c-367-10-662-312-662-682 0-376 306-681 681-681h55v-263c0-93 75-168 168-168s168 75 168 168v263h418c93 0 168 75 168 168s-75 168-168 168h-809c-190 0-346 155-346 345 0 191 155 346 346 346h445c376 0 682 306 682 682s-306 681-682 681zM18899-1H839C376-1-1 376-1 839v9240c0 463 377 840 840 840h18060c463 0 840-377 840-840V839c0-463-377-840-840-840zm420 10080c0 232-188 420-420 420H839c-232 0-420-188-420-420V839c0-232 188-420 420-420h18060c232 0 420 188 420 420v9240zM9288 4614h-871v692h871c191 0 346-155 346-346s-155-346-346-346z" id="amCamada_x0020_1"/></symbol><symbol viewBox="-5 -5 330.65 330.65" id="icon-percent" xmlns="http://www.w3.org/2000/svg"><path d="M139.219 124.494c12.369-13.416 19.184-31.412 19.184-50.678C158.403 37.134 132.202 0 82.116 0 58.807 0 39.143 8.006 25.247 23.152 12.938 36.57 6.161 54.562 6.161 73.816c0 36.686 26.09 73.818 75.955 73.818 23.396.001 43.146-7.999 57.103-23.14zM82.116 34.322c27.443 0 39.941 20.486 39.941 39.52 0 10.354-3.484 19.939-9.816 26.986-7.064 7.871-17.33 12.033-29.68 12.033-28.137 0-40.955-20.484-40.955-39.516 0-19.421 12.528-39.023 40.51-39.023zM264.274 28.476c-4.539.082-10.736 2.912-13.772 6.287L25.186 285.275c-3.035 3.377-.885 8.111 3.654 8.111h29.49c4.539 0 10.73-2.768 13.76-6.148L296.013 36.777c3.029-3.383 2.828-8.887-4.672-8.885l-27.067.584zM239.647 175.822c-22.859 0-42.15 7.858-55.783 22.715-12.074 13.158-18.726 30.811-18.726 49.699 0 35.984 25.594 72.412 74.51 72.412 22.957 0 42.326-7.85 56.02-22.701 12.135-13.162 18.818-30.816 18.818-49.711-.001-35.984-25.706-72.414-74.839-72.414zm.442 111.596c-27.375 0-39.848-20.557-39.848-39.648 0-10.397 3.482-20.018 9.809-27.092 7.053-7.894 17.287-12.066 29.598-12.066 27.377 0 39.844 20.553 39.844 39.65 0 10.395-3.483 20.018-9.805 27.092-7.055 7.892-17.29 12.064-29.598 12.064z"/></symbol><symbol viewBox="-5 -5 224.31 224.31" id="icon-pizza-box-closed" xmlns="http://www.w3.org/2000/svg"><path d="M214.278 155.58a3.641 3.641 0 0 0-.229-1.137c-.03-.082-.05-.166-.086-.245-.02-.044-.026-.093-.048-.137l-36.949-73.898a3.696 3.696 0 0 0-3.305-2.042h-40.824c-.841-8.862-5.378-14.134-10.581-18.864-5.979-5.434-9.584-8.714 4.337-27.297a3.688 3.688 0 0 0-.74-5.171 3.693 3.693 0 0 0-5.171.74c-16.667 22.242-11.922 29.444-3.399 37.194 3.505 3.186 7.226 6.628 8.107 13.398h-14.43c-1.272-4.748-3.199-8.868-5.039-12.766-4.196-8.898-7.513-15.924-2.071-28.228a3.69 3.69 0 0 0-1.884-4.871 3.695 3.695 0 0 0-4.871 1.884c-6.813 15.393-2.259 25.038 2.143 34.369 1.491 3.16 2.943 6.265 4.024 9.613H96.71c-1.573-10.308-7.394-15.689-12.29-20.142-7.57-6.881-12.142-11.038 5.156-34.124a3.688 3.688 0 0 0-.74-5.171 3.693 3.693 0 0 0-5.171.74C63.82 45.91 69.11 54.05 79.448 63.45c4.008 3.644 8.246 7.554 9.766 14.671h-48.57c-1.4 0-2.677.79-3.305 2.042L.39 154.062c-.022.044-.028.092-.048.137-.036.079-.055.162-.085.244-.137.37-.215.75-.229 1.137-.003.047-.028.086-.028.134v36.949a3.693 3.693 0 0 0 3.695 3.695H210.61a3.693 3.693 0 0 0 3.695-3.695v-36.949c0-.048-.025-.086-.027-.134zM42.928 85.511h46.847c-.317 7.206-2.797 16.867-8.833 30.378a3.695 3.695 0 1 0 6.749 3.016c6.441-14.42 9.041-25.131 9.378-33.395h7.768c.473 4.716.012 10.119-2.063 16.8a3.697 3.697 0 0 0 7.058 2.194c2.306-7.426 2.856-13.612 2.416-18.994h13.064c-.726 5.479-2.821 12.505-6.95 21.747a3.695 3.695 0 1 0 6.749 3.016c4.584-10.264 6.89-18.284 7.619-24.764h38.65l33.254 66.508H9.674l33.254-66.506zm82.326 73.898c-1.717 8.422-9.18 14.78-18.101 14.78s-16.384-6.358-18.101-14.78h36.202zm81.662 29.559H7.39v-29.559h74.194c1.803 12.512 12.567 22.169 25.569 22.169s23.766-9.658 25.569-22.169h74.194v29.559z"/><path d="M170.568 113.773l3.474 6.52-34.236 18.245-3.475-6.52zM146.144 145.899l-3.305-6.61 21.388-10.694 3.305 6.61z"/></symbol><symbol viewBox="-5 -5 68 68" id="icon-pizza-box-opened" xmlns="http://www.w3.org/2000/svg"><path d="M22.887 21.146c0 1.229.479 2.386 1.35 3.256a.997.997 0 0 0 1.414 0 .999.999 0 0 0 0-1.414c-.492-.492-.764-1.146-.764-1.842s.271-1.35.764-1.842a4.61 4.61 0 0 0 0-6.512.999.999 0 1 0-1.414 1.414 2.61 2.61 0 0 1 0 3.684 4.574 4.574 0 0 0-1.35 3.256zM12 21.146c0 1.229.479 2.386 1.35 3.256a.997.997 0 0 0 1.414 0 .999.999 0 0 0 0-1.414c-.493-.492-.764-1.146-.764-1.842s.271-1.35.764-1.842a4.61 4.61 0 0 0 0-6.512.999.999 0 1 0-1.414 1.414 2.61 2.61 0 0 1 0 3.684A4.574 4.574 0 0 0 12 21.146zM17.887 18.146c0 1.229.479 2.386 1.35 3.256a.997.997 0 0 0 1.414 0 .999.999 0 0 0 0-1.414c-.492-.492-.764-1.146-.764-1.842s.271-1.35.764-1.842a4.61 4.61 0 0 0 0-6.512.999.999 0 1 0-1.414 1.414 2.61 2.61 0 0 1 0 3.684 4.574 4.574 0 0 0-1.35 3.256zM14 38.5c-2.243 0-4 1.317-4 3s1.757 3 4 3 4-1.317 4-3-1.757-3-4-3zm0 4c-1.221 0-2-.592-2-1s.779-1 2-1 2 .592 2 1-.779 1-2 1zM17 30.5c-2.243 0-4 1.317-4 3s1.757 3 4 3 4-1.317 4-3-1.757-3-4-3zm0 4c-1.221 0-2-.592-2-1s.779-1 2-1 2 .592 2 1-.779 1-2 1zM27 34.5c2.243 0 4-1.317 4-3s-1.757-3-4-3-4 1.317-4 3 1.757 3 4 3zm0-4c1.221 0 2 .592 2 1s-.779 1-2 1-2-.592-2-1 .779-1 2-1zM37 35.5c2.243 0 4-1.317 4-3s-1.757-3-4-3-4 1.317-4 3 1.757 3 4 3zm0-4c1.221 0 2 .592 2 1s-.779 1-2 1-2-.592-2-1 .779-1 2-1zM50 36.5c0-1.683-1.757-3-4-3s-4 1.317-4 3 1.757 3 4 3 4-1.317 4-3zm-4 1c-1.221 0-2-.592-2-1s.779-1 2-1 2 .592 2 1-.779 1-2 1zM40 39.5c-2.243 0-4 1.317-4 3s1.757 3 4 3 4-1.317 4-3-1.757-3-4-3zm0 4c-1.221 0-2-.592-2-1s.779-1 2-1 2 .592 2 1-.779 1-2 1zM29 41.5c-2.243 0-4 1.317-4 3s1.757 3 4 3 4-1.317 4-3-1.757-3-4-3zm0 4c-1.221 0-2-.592-2-1s.779-1 2-1 2 .592 2 1-.779 1-2 1zM24.206 38.768a.995.995 0 0 0-1.025.405 1.573 1.573 0 0 0-1.378.878 1.57 1.57 0 0 0-1.471 1.243 1 1 0 0 0 1.798.779 1.573 1.573 0 0 0 1.378-.878 1.57 1.57 0 0 0 1.471-1.243 1 1 0 0 0-.773-1.184zM33.87 39.049c-.291-.508-.847-.778-1.431-.788a1.56 1.56 0 0 0-.604-.574 1.543 1.543 0 0 0-1.195-.119.998.998 0 0 0-.667 1.246.998.998 0 0 0 .847.705c.144.253.357.462.62.603.253.136.535.189.811.186.144.24.35.438.603.574a1.56 1.56 0 0 0 1.195.12.998.998 0 0 0 .667-1.246.998.998 0 0 0-.846-.707zM27.11 36.049c-.291-.508-.838-.787-1.431-.788a1.56 1.56 0 0 0-.604-.574 1.552 1.552 0 0 0-1.195-.119.998.998 0 0 0-.667 1.246.998.998 0 0 0 .847.705c.144.253.357.462.62.603.253.136.536.189.811.186.144.24.35.438.603.574a1.56 1.56 0 0 0 1.195.12.998.998 0 0 0 .667-1.246.995.995 0 0 0-.846-.707z"/><path d="M57.846 47.093a1.518 1.518 0 0 0-.027-.479l-7.754-19.972 4.906-19.903c.008-.034-.003-.068.002-.102.006-.046.027-.088.027-.137v-3a1 1 0 0 0-1-1H4a1 1 0 0 0-1 1v3a1 1 0 0 0 1 1h.149l4.197 18.466c-.174.176-.32.382-.394.632L.222 46.482l-.041.133a1.522 1.522 0 0 0-.019.558 1.218 1.218 0 0 0-.162.58v6.158c0 .876.713 1.589 1.589 1.589h54.822c.876 0 1.589-.713 1.589-1.589v-6.283c0-.197-.064-.373-.154-.535zM34.429 46.5h-.031c-.718 0-1.334.501-1.5 1.22-.03.13-.08.251-.126.375-.026.071-.043.146-.074.215-.044.097-.104.185-.157.277-.049.085-.091.175-.148.256-.041.058-.093.108-.137.163-.085.105-.166.214-.263.31-.024.023-.052.042-.077.065a4.189 4.189 0 0 1-2.224 1.066 4.509 4.509 0 0 1-1.384 0 4.18 4.18 0 0 1-2.245-1.084c-.017-.017-.038-.03-.055-.047-.102-.102-.189-.215-.278-.327-.04-.05-.087-.095-.123-.147-.064-.091-.111-.19-.165-.286-.046-.082-.101-.16-.14-.246-.039-.085-.061-.178-.092-.266-.038-.108-.084-.213-.109-.325a1.543 1.543 0 0 0-1.499-1.219H10.773C7.78 44.564 6 40.952 6 38.5c0-5.963 10.533-11 23-11s23 5.037 23 11c0 2.452-1.78 6.064-4.773 8H34.429zm-24.682-19h5.761c-2.833.928-5.264 2.145-7.152 3.579L9.747 27.5zm39.897 3.578c-1.888-1.434-4.319-2.65-7.152-3.578h5.761l1.391 3.578zm3.913 10.066l2.082 5.356h-5.302c1.572-1.6 2.663-3.538 3.22-5.356zM5 4.5h48v1H32.93a1.002 1.002 0 0 0-.963 1.272A.827.827 0 0 1 32 7c0 .71-1.027 1.5-2.5 1.5S27 7.71 27 7c0-.076.011-.15.033-.228A1.002 1.002 0 0 0 26.07 5.5H5v-1zm20.043 3c.303 1.718 2.152 3 4.457 3s4.153-1.282 4.457-3h18.767l-4.437 18H10.292L6.2 7.5h18.843zm-20.6 33.643C5 42.962 6.091 44.9 7.664 46.5H2.361l2.082-5.357zM56 53.5H2v-5H23.24c.709 2.37 3.032 4 5.761 4s5.052-1.63 5.761-4H56v5z"/></symbol><symbol viewBox="-40 -40 15388 16080" shape-rendering="geometricPrecision" text-rendering="geometricPrecision" image-rendering="optimizeQuality" fill-rule="evenodd" clip-rule="evenodd" id="icon-pizza-slice" xmlns="http://www.w3.org/2000/svg"><defs><style>.aqfil0{fill:#000}</style></defs><g id="aqCamada_x0020_1"><path class="aqfil0" d="M10397 609c-125-396-521-646-918-605-1064 83-3212 563-5902 3003C908 5447 199 7574 11 8638c-63 396 146 813 521 980l13472 6298c125 63 250 83 396 83 209 0 438-83 605-229 271-250 375-626 250-980L10396 609zM449 8701c167-1001 855-3024 3441-5401C6476 943 8541 464 9542 401c229-21 417 125 501 334l480 1376C4287 3800 2598 8743 2285 9931L742 9222c-229-83-334-313-292-521zm14285 6736c-125 104-313 188-542 83L2639 10119c229-938 1773-5923 7987-7612l4254 12408c63 229-42 417-146 521z"/><path class="aqfil0" d="M11252 7199c-438-480-1168-501-1627-83-229 209-355 501-375 792-21 292 83 605 292 834 229 250 542 375 855 375 271 0 563-104 772-292 229-209 355-501 375-792 21-292-83-605-292-834zm-355 1335c-292 271-772 250-1043-42-125-146-209-334-188-521 21-188 104-375 229-501 146-125 313-188 501-188 209 0 396 83 542 229 125 146 209 334 188 521-21 188-83 355-229 501zM9416 6177c271 0 563-104 772-292 229-209 355-501 375-792 21-292-83-605-292-834-438-480-1168-501-1627-83-229 209-355 501-375 792-21 292 83 605 292 834 229 250 542 375 855 375zm-501-1710c146-125 313-188 501-188 209 0 396 83 542 229 125 146 209 334 188 521-21 188-104 375-229 501-292 271-772 250-1043-42-125-146-209-334-188-521 21-188 83-355 229-501zM12524 11308c313-292 334-792 42-1105-125-146-313-229-521-250-209-21-417 63-563 209s-250 334-250 542c0 209 63 417 209 563 146 167 375 250 584 250 167 0 355-63 501-209zm-792-334c-63-63-104-167-104-250 0-104 42-188 125-250 63-63 146-104 250-104h21c104 0 188 42 250 125 125 146 125 375-21 521-146 125-375 104-521-42zM7143 6407c-292-313-792-334-1105-42s-334 792-42 1105c146 167 375 250 584 250 188 0 375-63 521-209 313-292 334-792 42-1105zm-313 792c-146 125-375 125-521-21-125-146-125-375 21-521 63-63 167-104 250-104 104 0 188 42 271 125 125 146 125 396-21 521zM8353 8617c-355-375-938-417-1314-63-375 355-417 938-63 1314 188 209 438 313 688 313 229 0 459-83 626-250 375-334 417-938 63-1314zm-334 1022c-209 188-542 188-730-42-188-209-188-542 42-730 104-83 229-125 355-125 146 0 271 63 375 167 167 209 167 521-42 730zM12691 12330c-229 0-438 63-605 229-167 146-271 355-271 584s63 438 229 605c167 188 396 271 626 271 209 0 417-83 584-229 355-313 375-855 63-1210-188-125-396-229-626-250zm250 1189c-83 83-188 125-313 104-125 0-229-63-292-146-83-83-125-188-104-313 0-125 63-229 146-313 83-83 188-104 292-104 125 0 229 42 313 146 83 83 125 188 104 313s-63 229-146 313zM9479 10098c-313-21-605 104-855 313-480 438-521 1189-83 1668 229 250 542 375 876 375 292 0 563-104 792-313s375-501 375-813c21-313-104-605-313-855-188-229-459-355-792-375zm459 1731c-313 292-792 250-1064-42-292-313-250-792 42-1064 146-125 313-209 521-209h42c209 0 396 104 521 250 146 146 209 334 188 542 0 209-83 396-250 521zM4954 8075c-313-21-605 104-855 313s-375 501-375 813c-21 313 104 605 313 855 209 229 501 375 813 375h63c292 0 584-104 792-313 229-209 375-501 375-813 0-313-83-605-292-834-229-250-521-375-834-396zm459 1731c-146 146-334 209-542 188-209 0-396-104-521-250-146-146-209-334-188-542 0-209 104-396 250-521s313-209 521-209h42c209 0 396 104 521 250 146 146 209 334 188 542-21 229-104 417-271 542z"/></g></symbol><symbol viewBox="-5 -5 34 34" id="icon-plus" xmlns="http://www.w3.org/2000/svg"><path d="M12 0C5.373 0 0 5.373 0 12s5.373 12 12 12 12-5.373 12-12S18.627 0 12 0zm6 13h-5v5h-2v-5H6v-2h5V6h2v5h5v2z"/></symbol><symbol viewBox="-5 -5 34 34" id="icon-plus-hollow" xmlns="http://www.w3.org/2000/svg"><path d="M12 2c5.514 0 10 4.486 10 10s-4.486 10-10 10S2 17.514 2 12 6.486 2 12 2zm0-2C5.373 0 0 5.373 0 12s5.373 12 12 12 12-5.373 12-12S18.627 0 12 0zm6 13h-5v5h-2v-5H6v-2h5V6h2v5h5v2z"/></symbol><symbol viewBox="-5 -5 34 34" id="icon-refresh" xmlns="http://www.w3.org/2000/svg"><path d="M13.5 2C7.871 2 3.288 6.436 3.025 12H0l4.537 5.917L9 12H6.025c.26-3.902 3.508-7 7.475-7 4.136 0 7.5 3.364 7.5 7.5S17.636 20 13.5 20a7.483 7.483 0 0 1-5.876-2.854l-1.847 2.449A10.46 10.46 0 0 0 13.5 23C19.298 23 24 18.298 24 12.5S19.298 2 13.5 2z"/></symbol><symbol viewBox="-5 -5 34 34" id="icon-search" xmlns="http://www.w3.org/2000/svg"><path d="M23.111 20.058l-4.977-4.977a9.767 9.767 0 0 0 1.523-5.251c0-5.42-4.409-9.83-9.829-9.83C4.408 0 0 4.41 0 9.83s4.408 9.83 9.829 9.83a9.764 9.764 0 0 0 5.022-1.383l5.021 5.021c2.144 2.141 5.384-1.096 3.239-3.24zM3.047 9.83c0-3.739 3.043-6.782 6.782-6.782s6.782 3.042 6.782 6.782-3.043 6.782-6.782 6.782-6.782-3.043-6.782-6.782zm2.01-1.764c1.984-4.599 8.664-4.066 9.922.749a7.002 7.002 0 0 0-9.922-.749z"/></symbol><symbol viewBox="-5 -5 34 34" id="icon-star" xmlns="http://www.w3.org/2000/svg"><path d="M12 .587l3.668 7.568L24 9.306l-6.064 5.828 1.48 8.279L12 19.446l-7.417 3.967 1.481-8.279L0 9.306l8.332-1.151z"/></symbol><symbol viewBox="-5 -5 34 34" id="icon-star-half" xmlns="http://www.w3.org/2000/svg"><path d="M12 5.173l2.335 4.817 5.305.732-3.861 3.71.942 5.27L12 17.178V5.173zm0-4.586L8.332 8.155 0 9.306l6.064 5.828-1.48 8.279L12 19.446l7.416 3.966-1.48-8.279L24 9.306l-8.332-1.15L12 .587z"/></symbol><symbol viewBox="-5 -5 34 34" id="icon-star-hollow" xmlns="http://www.w3.org/2000/svg"><path d="M12 4.876l2.298 5.109 5.342.737-3.851 3.7.931 5.575L12 17.1l-4.72 2.898.931-5.575-3.851-3.7 5.342-.737L12 4.876zM12 0L8.332 8.155 0 9.306l6.064 5.828L4.584 24 12 19.446 19.416 24l-1.48-8.866L24 9.306l-8.332-1.15L12 0z"/></symbol><symbol viewBox="-5 -5 42 42" id="icon-user-tie" xmlns="http://www.w3.org/2000/svg"><title>user-tie</title><path d="M10 6a6 6 0 1 1 12 0 6 6 0 0 1-12 0zm14.002 8h-1.107l-6.222 12.633L19 15l-3-3-3 3 2.327 11.633L9.105 14H7.998C4 14 4 16.687 4 20v10h24V20c0-3.313 0-6-3.998-6z"/></symbol><symbol viewBox="-15.5 -15.5 6231 1932" shape-rendering="geometricPrecision" text-rendering="geometricPrecision" image-rendering="optimizeQuality" fill-rule="evenodd" clip-rule="evenodd" id="icon-visa-card" xmlns="http://www.w3.org/2000/svg"><defs><style>.azfil0,.azfil1{fill:#faa831;fill-rule:nonzero}.azfil0{fill:#0b5fa2}</style></defs><g id="azCamada_x0020_1"><path class="azfil0" d="M2184 1874L2498 32h502l-314 1842zM4507 77c-99-37-255-77-450-77-496 0-845 250-848 608-3 265 249 412 440 500 195 90 261 148 260 228-1 123-156 180-300 180-201 0-308-28-473-97l-65-29-70 412c117 51 334 96 559 98 528 0 870-247 874-629 2-209-132-369-421-500-175-85-283-142-282-228 0-77 91-158 287-158 164-3 283 33 376 71l45 21 68-399zM5794 34h-388c-120 0-210 33-263 153l-745 1688h527s86-227 106-277c58 0 570 1 643 1 15 64 61 276 61 276h466L5795 35zm-619 1187c42-106 200-515 200-515-3 5 41-107 67-176l34 159s96 440 116 532h-417zM1763 33l-491 1256-52-255c-91-294-377-613-695-773l449 1611 531-1L2295 33h-532z"/><path class="azfil1" d="M816 32H7L1 70c630 152 1046 521 1219 963l-176-846C1014 70 925 36 816 32z"/></g></symbol><symbol viewBox="-5 -5 34 34" id="icon-whatsapp" xmlns="http://www.w3.org/2000/svg"><path d="M.057 24l1.687-6.163a11.867 11.867 0 0 1-1.587-5.946C.16 5.335 5.495 0 12.05 0a11.817 11.817 0 0 1 8.413 3.488 11.824 11.824 0 0 1 3.48 8.414c-.003 6.557-5.338 11.892-11.893 11.892a11.9 11.9 0 0 1-5.688-1.448L.057 24zm6.597-3.807c1.676.995 3.276 1.591 5.392 1.592 5.448 0 9.886-4.434 9.889-9.885.002-5.462-4.415-9.89-9.881-9.892-5.452 0-9.887 4.434-9.889 9.884-.001 2.225.651 3.891 1.746 5.634l-.999 3.648 3.742-.981zm11.387-5.464c-.074-.124-.272-.198-.57-.347-.297-.149-1.758-.868-2.031-.967-.272-.099-.47-.149-.669.149-.198.297-.768.967-.941 1.165-.173.198-.347.223-.644.074-.297-.149-1.255-.462-2.39-1.475-.883-.788-1.48-1.761-1.653-2.059-.173-.297-.018-.458.13-.606.134-.133.297-.347.446-.521.151-.172.2-.296.3-.495.099-.198.05-.372-.025-.521-.075-.148-.669-1.611-.916-2.206-.242-.579-.487-.501-.669-.51l-.57-.01c-.198 0-.52.074-.792.372s-1.04 1.016-1.04 2.479 1.065 2.876 1.213 3.074c.149.198 2.095 3.2 5.076 4.487.709.306 1.263.489 1.694.626.712.226 1.36.194 1.872.118.571-.085 1.758-.719 2.006-1.413.248-.695.248-1.29.173-1.414z"/></symbol><symbol viewBox="-5 -5 34 34" id="icon-x-mark" xmlns="http://www.w3.org/2000/svg"><path d="M12 0C5.373 0 0 5.373 0 12s5.373 12 12 12 12-5.373 12-12S18.627 0 12 0zm4.151 17.943l-4.143-4.102L7.891 18l-1.833-1.833 4.104-4.157L6 7.891l1.833-1.833 4.155 4.102L16.094 6l1.849 1.849-4.1 4.141L18 16.094l-1.849 1.849z"/></symbol></svg>